<svg width="23" height="32" viewBox="0 0 23 32" fill="none" xmlns="http://www.w3.org/2000/svg">
<path d="M16.26 11.9747H10.1427V0H16.26C19.5613 0 22.2467 2.68533 22.2467 5.98667C22.2467 9.288 19.5613 11.9747 16.26 11.9747ZM12.104 10.0133H16.26C18.48 10.0133 20.2853 8.20667 20.2853 5.988C20.2853 3.76933 18.4787 1.96267 16.26 1.96267H12.104V10.0133ZM12.104 11.9747H5.988C2.68667 11.9747 0.00133324 9.28933 0.00133324 5.988C0.00133324 2.68667 2.68667 0 5.988 0H12.1053V11.9747H12.104ZM5.988 1.96133C3.768 1.96133 1.96267 3.768 1.96267 5.98667C1.96267 8.20533 3.768 10.0133 5.988 10.0133H10.144V1.96133H5.988ZM12.104 21.9867H5.988C2.68667 21.9867 0.00133324 19.3013 0.00133324 16C0.00133324 12.6987 2.68667 10.0133 5.988 10.0133H12.1053V21.9867H12.104ZM5.988 11.9747C3.768 11.9747 1.96267 13.7813 1.96267 16C1.96267 18.2187 3.76933 20.0253 5.988 20.0253H10.144V11.9747H5.988ZM6.02 32C2.70133 32 0 29.3147 0 26.0133C0 22.712 2.68533 20.0267 5.98667 20.0267H12.104V25.948C12.104 29.2853 9.37467 32 6.02 32ZM5.988 21.9867C4.92085 21.9881 3.89781 22.4126 3.14322 23.1672C2.38863 23.9218 1.96408 24.9449 1.96267 26.012C1.96267 28.232 3.78267 30.0373 6.02133 30.0373C8.29467 30.0373 10.1453 28.2027 10.1453 25.9467V21.9867H5.988ZM16.26 21.9867H16.1293C12.828 21.9867 10.1427 19.3013 10.1427 16C10.1427 12.6987 12.828 10.0133 16.1293 10.0133H16.26C19.5613 10.0133 22.2467 12.6987 22.2467 16C22.2467 19.3013 19.5613 21.9867 16.26 21.9867ZM16.1307 11.9747C13.9107 11.9747 12.1053 13.7813 12.1053 16C12.1053 18.2187 13.912 20.0253 16.1307 20.0253H16.2613C18.4813 20.0253 20.2867 18.2187 20.2867 16C20.2867 13.7813 18.48 11.9747 16.2613 11.9747H16.1307Z" fill="white"/>
</svg>
