<svg width="37" height="22" viewBox="0 0 37 22" fill="none" xmlns="http://www.w3.org/2000/svg">
<path d="M18.0015 0.200012C13.2015 0.200012 10.2015 2.60001 9.00153 7.40001C10.8015 5.00001 12.9015 4.10001 15.3015 4.70001C16.671 5.04201 17.649 6.03501 18.7335 7.13601C20.499 8.92701 22.5405 11 27.0015 11C31.8015 11 34.8015 8.60001 36.0015 3.80001C34.2015 6.20001 32.1015 7.10001 29.7015 6.50001C28.332 6.15801 27.354 5.16501 26.2695 4.06401C24.5055 2.27301 22.464 0.200012 18.0015 0.200012ZM9.00153 11C4.20153 11 1.20153 13.4 0.00152588 18.2C1.80153 15.8 3.90153 14.9 6.30153 15.5C7.67103 15.842 8.64903 16.835 9.73353 17.936C11.499 19.727 13.5405 21.8 18.0015 21.8C22.8015 21.8 25.8015 19.4 27.0015 14.6C25.2015 17 23.1015 17.9 20.7015 17.3C19.332 16.958 18.354 15.965 17.2695 14.864C15.5055 13.073 13.464 11 9.00153 11Z" fill="white"/>
</svg>
