<svg width="36" height="34" viewBox="0 0 36 34" fill="none" xmlns="http://www.w3.org/2000/svg">
<path d="M21.345 17.006C21.345 17.8953 20.9918 18.7482 20.3632 19.3771C19.7345 20.0061 18.8818 20.3596 17.9925 20.36C17.103 20.36 16.2499 20.0066 15.6209 19.3776C14.9919 18.7486 14.6385 17.8955 14.6385 17.006C14.6385 16.1167 14.9917 15.2639 15.6203 14.6349C16.249 14.0059 17.1017 13.6524 17.991 13.652C18.8805 13.652 19.7336 14.0054 20.3626 14.6344C20.9916 15.2634 21.345 16.1165 21.345 17.006ZM25.317 0.971008C23.298 0.971008 20.6565 2.41101 17.985 4.90401C15.315 2.42451 12.672 1.00101 10.6545 1.00101C10.0395 1.00101 9.48 1.14051 8.9955 1.41801C6.933 2.60751 6.471 6.31401 7.536 10.9655C2.97 12.3755 0 14.63 0 17.006C0 19.391 2.985 21.6515 7.5645 23.051C6.5085 27.7205 6.9795 31.433 9.0465 32.621C9.5265 32.9015 10.0815 33.0335 10.6995 33.0335C12.717 33.0335 15.36 31.5935 18.0315 29.0975C20.7015 31.5785 23.3445 33.002 25.362 33.002C25.977 33.002 26.5365 32.867 27.021 32.5895C29.082 31.4015 29.5455 27.695 28.4805 23.042C33.03 21.644 36 19.385 36 17.006C36 14.621 33.015 12.3605 28.4355 10.958C29.4915 6.29301 29.0205 2.57751 26.9535 1.38801C26.4765 1.11201 25.9215 0.972508 25.3155 0.971008H25.317ZM25.3095 2.60601V2.61501C25.647 2.61501 25.9185 2.68101 26.1465 2.80551C27.1455 3.37851 27.579 5.55801 27.2415 8.36151C27.1605 9.05151 27.0285 9.77901 26.8665 10.5215C25.4265 10.1675 23.8575 9.89601 22.206 9.72051C21.216 8.36301 20.1885 7.13001 19.1535 6.05001C21.5415 3.83001 23.784 2.61201 25.311 2.60751L25.3095 2.60601ZM10.6545 2.63601C12.1725 2.63601 14.4255 3.84801 16.8195 6.05601C15.7905 7.13601 14.7645 8.36151 13.7895 9.71901C12.129 9.89451 10.5585 10.166 9.12 10.526C8.952 9.79101 8.8275 9.08001 8.739 8.39601C8.394 5.59401 8.82 3.41601 9.81 2.83551C10.095 2.70051 10.41 2.64501 10.6545 2.63751V2.63601ZM17.9775 7.21101C18.66 7.91301 19.3425 8.69901 20.0175 9.55701C19.3575 9.52701 18.6825 9.50601 18 9.50601C17.31 9.50601 16.6275 9.52101 15.96 9.55701C16.62 8.69901 17.3025 7.91301 17.9775 7.20951V7.21101ZM18 11.15C19.11 11.15 20.2155 11.201 21.303 11.2895C21.912 12.1625 22.506 13.094 23.0775 14.0795C23.6355 15.0395 24.1425 16.0145 24.6045 16.9985C24.1425 17.981 23.6355 18.9635 23.085 19.9235C22.515 20.9135 21.9255 21.8555 21.315 22.7285C20.223 22.823 19.116 22.8755 18 22.8755C16.89 22.8755 15.7845 22.823 14.697 22.736C14.088 21.863 13.494 20.93 12.9225 19.946C12.3645 18.986 11.8575 18.011 11.3955 17.027C11.85 16.0415 12.3645 15.0575 12.915 14.096C13.485 13.106 14.0745 12.167 14.685 11.294C15.777 11.198 16.884 11.147 18 11.147V11.15ZM12.5475 11.531C12.1875 12.0965 11.8275 12.6755 11.4915 13.271C11.154 13.856 10.839 14.444 10.539 15.032C10.1415 14.048 9.804 13.067 9.525 12.1115C10.485 11.8865 11.4975 11.687 12.5475 11.5325V11.531ZM23.4375 11.531C24.48 11.6855 25.485 11.876 26.4465 12.1115C26.1765 13.0595 25.839 14.0345 25.4565 15.011C25.1565 14.426 24.8415 13.8365 24.4965 13.25C24.159 12.662 23.799 12.089 23.439 11.531H23.4375ZM28.032 12.5435C28.758 12.7685 29.448 13.019 30.0945 13.2905C32.6925 14.4005 34.3725 15.8525 34.3725 17.0045C34.365 18.1565 32.685 19.6145 30.087 20.717C29.457 20.987 28.767 21.23 28.0545 21.4565C27.6345 20.0195 27.0855 18.5225 26.4045 16.9865C27.0795 15.461 27.6195 13.9715 28.032 12.5405V12.5435ZM7.9395 12.5495C8.3565 13.9895 8.907 15.485 9.5895 17.0195C8.9145 18.545 8.3715 20.0345 7.9605 21.4655C7.2345 21.2405 6.5445 20.9885 5.9055 20.7155C3.3075 19.61 1.6275 18.1565 1.6275 17.0045C1.6275 15.8525 3.3075 14.3915 5.9055 13.2905C6.5355 13.0205 7.2255 12.7775 7.9395 12.5495ZM25.4565 18.9695C25.854 19.955 26.1915 20.9375 26.4705 21.8915C25.5105 22.127 24.4965 22.3265 23.4465 22.4765C23.8065 21.914 24.1665 21.3335 24.504 20.7395C24.8415 20.1545 25.1565 19.5575 25.458 18.9695H25.4565ZM10.539 18.9995C10.839 19.5875 11.154 20.174 11.499 20.762C11.844 21.347 12.1965 21.92 12.5565 22.4765C11.514 22.3235 10.509 22.1315 9.5475 21.8975C9.8175 20.9525 10.1565 19.9745 10.5375 18.998L10.539 18.9995ZM26.88 23.48C27.048 24.2195 27.18 24.932 27.261 25.6145C27.606 28.4165 27.18 30.5945 26.19 31.1765C25.9695 31.3115 25.683 31.3685 25.3455 31.3685C23.8275 31.3685 21.5745 30.158 19.1805 27.9485C20.2095 26.8685 21.2355 25.6445 22.2105 24.2885C23.871 24.1115 25.4415 23.8385 26.88 23.4785V23.48ZM9.135 23.495C10.575 23.846 12.144 24.1175 13.7955 24.293C14.7855 25.6505 15.813 26.8835 16.848 27.962C14.4555 30.1865 12.21 31.4045 10.683 31.4045C10.353 31.397 10.074 31.3295 9.8535 31.2065C8.8545 30.6365 8.421 28.4555 8.7585 25.652C8.8395 24.962 8.9715 24.236 9.1335 23.495H9.135ZM15.975 24.455C16.635 24.485 17.31 24.506 17.9925 24.506C18.6825 24.506 19.365 24.491 20.0325 24.455C19.3725 25.313 18.69 26.0975 18.015 26.8025C17.3325 26.0975 16.65 25.313 15.975 24.455Z" fill="white"/>
</svg>
