<svg width="32" height="32" viewBox="0 0 32 32" fill="none" xmlns="http://www.w3.org/2000/svg">
<path d="M1.5 0C0.669333 0 0 0.669333 0 1.5V30.5C0 31.3307 0.669333 32 1.5 32H30.5C31.3307 32 32 31.3307 32 30.5V1.5C32 0.669333 31.3307 0 30.5 0H1.5ZM24.6507 13C25.4667 13 26.1893 13.0493 26.82 13.148C27.4148 13.2371 27.9985 13.3891 28.5613 13.6013V16.8787C28.2912 16.6918 28.0042 16.5307 27.704 16.3973C27.3944 16.258 27.0749 16.1422 26.748 16.0507C26.1288 15.8781 25.4894 15.7885 24.8467 15.784C24.4467 15.784 24.0827 15.8213 23.7547 15.8987C23.4623 15.9612 23.1819 16.0701 22.924 16.2213C22.6973 16.36 22.524 16.5267 22.4 16.72C22.2753 16.9149 22.2104 17.142 22.2133 17.3733C22.2133 17.6347 22.284 17.8707 22.4213 18.0787C22.56 18.2867 22.7573 18.484 23.012 18.6707C23.2667 18.8573 23.576 19.0387 23.94 19.2173C24.304 19.3973 24.716 19.5827 25.1747 19.772C25.8013 20.0347 26.364 20.3147 26.8627 20.6093C27.3613 20.9053 27.7893 21.24 28.1467 21.6133C28.504 21.9853 28.776 22.4107 28.9653 22.8893C29.1547 23.368 29.2507 23.924 29.2507 24.56C29.2507 25.436 29.084 26.1733 28.7533 26.768C28.4303 27.3545 27.9666 27.8516 27.404 28.2147C26.7976 28.5992 26.1255 28.8686 25.4213 29.0093C24.6667 29.1693 23.8707 29.2493 23.0347 29.2493C22.2119 29.2529 21.3905 29.1797 20.5813 29.0307C19.8812 28.9096 19.2023 28.6882 18.5653 28.3733V24.8667C19.7704 25.8922 21.299 26.4589 22.8813 26.4667C23.3253 26.4667 23.7133 26.4267 24.044 26.3467C24.376 26.2667 24.652 26.1547 24.8747 26.0133C25.096 25.8693 25.2613 25.7013 25.372 25.5067C25.4943 25.28 25.55 25.0234 25.5325 24.7664C25.515 24.5095 25.4252 24.2627 25.2733 24.0547C25.0752 23.7925 24.8329 23.5669 24.5573 23.388C24.2155 23.1614 23.8557 22.9634 23.4813 22.796C23.0377 22.5934 22.59 22.3996 22.1387 22.2147C20.9147 21.704 20.0027 21.0787 19.4013 20.3413C18.8013 19.604 18.5 18.712 18.5 17.668C18.5 16.8493 18.664 16.1467 18.992 15.5587C19.32 14.9707 19.7653 14.4867 20.3307 14.1067C20.9286 13.7122 21.5925 13.4282 22.2907 13.268C23.064 13.0857 23.8562 12.9957 24.6507 13ZM4.5 13.2507H17.2507V16.1387H12.6747V29H9.052V16.1387H4.5V13.2507Z" fill="white"/>
</svg>
