<svg width="34" height="36" viewBox="0 0 34 36" fill="none" xmlns="http://www.w3.org/2000/svg">
<path d="M20.0765 4.1265L27.479 8.4015C28.703 7.113 30.7385 7.062 32.027 8.286C32.249 8.496 32.438 8.7375 32.5925 9.0015C33.476 10.5435 32.9405 12.51 31.3985 13.3935C31.1375 13.5435 30.857 13.656 30.5615 13.728V22.2765C32.2805 22.686 33.3425 24.411 32.9315 26.13C32.8595 26.436 32.741 26.73 32.5835 27.0015C31.6955 28.536 29.732 29.0625 28.193 28.1745C27.899 28.005 27.6305 27.786 27.404 27.531L20.0465 31.779C20.6045 33.465 19.6895 35.2815 18.005 35.838C17.6795 35.9445 17.342 36 17 36C15.2285 36.0015 13.7915 34.5675 13.79 32.796C13.79 32.4885 13.8335 32.181 13.922 31.8825L6.51799 27.612C5.29399 28.893 3.26149 28.9425 1.97899 27.717C0.697992 26.493 0.649992 24.4605 1.87399 23.178C2.29849 22.7325 2.84299 22.419 3.43999 22.2735L3.44149 13.725C1.71649 13.311 0.654492 11.5755 1.06999 9.849C1.14049 9.552 1.25449 9.2655 1.40599 9C2.29399 7.464 4.25899 6.939 5.79649 7.827C6.06199 7.9785 6.30499 8.169 6.51649 8.3925L13.9235 4.1175C13.4195 2.418 14.39 0.634501 16.085 0.132001C16.3805 0.0435012 16.691 1.17694e-06 17 1.17694e-06C18.7715 -0.00149882 20.2085 1.431 20.21 3.201C20.2115 3.5145 20.165 3.828 20.0765 4.1265ZM19.304 5.442C19.2755 5.4735 19.2485 5.5005 19.217 5.529L28.9085 22.314C28.9475 22.3005 28.9925 22.29 29.0315 22.2795V13.719C27.314 13.2945 26.2685 11.556 26.6945 9.837C26.7035 9.801 26.7125 9.7635 26.723 9.729L19.304 5.442ZM14.7815 5.5305L14.6915 5.4405L7.27249 9.7185C7.76299 11.421 6.78199 13.1955 5.08099 13.686C5.04199 13.698 5.00449 13.707 4.96699 13.7175V22.2795L5.09299 22.314L14.7845 5.529L14.7815 5.5305ZM17.8955 6.291C17.3105 6.459 16.691 6.459 16.1075 6.291L6.41749 23.0745C6.85849 23.499 7.17049 24.042 7.31749 24.636H26.684C26.8295 24.039 27.1445 23.4945 27.5885 23.07L17.8955 6.291ZM19.3745 30.6315L26.744 26.3745C26.7215 26.304 26.7035 26.2335 26.687 26.1615H7.31299L7.28149 26.286L14.69 30.564C15.272 29.958 16.091 29.5845 17 29.5845C17.9405 29.5845 18.785 29.988 19.3745 30.6315Z" fill="white"/>
</svg>
