<svg width="31" height="47" viewBox="0 0 31 47" fill="none" xmlns="http://www.w3.org/2000/svg">
<path d="M4.89014 34.3434C4.93593 31.5043 5.35799 28.6693 5.09646 25.8252C5.01269 24.9142 4.85508 24.3609 5.19962 25.8252C5.93781 28.9625 6.56639 32.1306 7.21863 35.2866C7.3065 35.7117 8.891 42.6743 9.09027 42.5373C9.72643 42.1 9.34942 41.01 9.37028 40.2383C9.47246 36.4576 9.36344 32.6718 9.39975 28.8906C9.48718 19.7856 8.9835 17.3675 10.9116 8.42816C11.6211 5.13879 11.9859 8.51946 12.179 9.53345" stroke="black" stroke-width="0.6" stroke-linecap="round" stroke-linejoin="round"/>
<path d="M11.2567 41.7708C10.8457 38.997 11.0079 36.2614 11.404 33.4885C11.4454 33.1987 12.0423 29.2929 12.3177 29.5683" stroke="black" stroke-width="0.6" stroke-linecap="round" stroke-linejoin="round"/>
<path d="M12.5829 41.5057C12.5829 39.3878 12.547 37.2655 12.745 35.154C12.8174 34.3813 12.8362 31.7886 13.585 31.1896C13.7087 31.0907 13.6416 31.5028 13.6439 31.6612C13.6558 32.4762 13.6439 33.2926 13.6439 34.1076C13.6439 35.6576 13.5437 37.2496 13.7029 38.7941C13.7583 39.3314 14.1764 41.0221 14.7198 39.6636C15.6378 37.3685 15.8291 34.6936 16.2967 32.2802C16.4208 31.6394 17.7685 26.2655 17.8883 26.3853" stroke="black" stroke-width="0.6" stroke-linecap="round" stroke-linejoin="round"/>
<path d="M21.0716 40.9753C21.9525 37.3418 21.5087 33.4964 21.2779 29.8044C20.9331 24.2863 20.6178 22.4768 20.3053 16.9558C20.1628 14.4395 19.2179 10.5461 21.2779 8.52608C22.9303 6.90577 26.7481 5.04397 29.0887 6.02074C31.8944 7.19164 30.0648 11.5433 29.0003 13.1831C25.5419 18.5103 19.8721 21.8849 14.9998 25.7392C8.60818 30.7956 -4.14207 36.8215 3.29844 45.7501" stroke="black" stroke-width="0.6" stroke-linecap="round" stroke-linejoin="round"/>
<path d="M16.8599 41.2286C16.9748 38.6626 17.4911 36.1228 17.9222 33.598C18.1067 32.5169 18.2589 31.438 18.371 30.3475C18.3886 30.1763 18.4086 29.9756 18.4384 29.8014C18.4808 29.5528 18.4559 29.7628 18.4758 29.7827" stroke="black" stroke-width="0.6" stroke-linecap="round" stroke-linejoin="round"/>
</svg>
