<svg width="826" height="1938" viewBox="0 0 826 1938" fill="none" xmlns="http://www.w3.org/2000/svg">
<path fill-rule="evenodd" clip-rule="evenodd" d="M718.315 1255.49C694.898 1309.35 699.27 1403.08 741.074 1444.34C793.951 1496.53 825.805 1563.88 825.805 1637.42C825.805 1876.16 663.972 1937.52 464.341 1937.52C264.71 1937.52 102.878 1857.19 102.878 1637.42C102.878 1562.94 135.554 1494.8 189.653 1442.34C231.807 1401.46 236.84 1307.78 214.048 1253.66C205.613 1233.63 201.053 1212.25 201.053 1190.05C201.053 1076.68 269.106 1011.55 466.573 1011.55C664.039 1011.55 732.092 1076.68 732.092 1190.05C732.092 1212.93 727.25 1234.93 718.315 1255.49Z" fill="url(#paint0_linear)"/>
<path fill-rule="evenodd" clip-rule="evenodd" d="M615.677 1255.49C592.26 1309.35 596.632 1403.08 638.436 1444.34C691.313 1496.53 723.167 1563.88 723.167 1637.42C723.167 1876.16 561.334 1937.52 361.704 1937.52C162.073 1937.52 0.239869 1857.19 0.239872 1637.42C0.239873 1562.94 32.9161 1494.8 87.0149 1442.34C129.169 1401.46 134.202 1307.78 111.41 1253.66C102.975 1233.63 98.4152 1212.25 98.4152 1190.05C98.4152 1076.68 166.469 1011.55 363.935 1011.55C561.401 1011.55 629.454 1076.68 629.454 1190.05C629.454 1212.93 624.612 1234.93 615.677 1255.49Z" fill="url(#paint1_linear)"/>
<circle cx="370.629" cy="1299.38" r="131.644" transform="rotate(-90 370.629 1299.38)" fill="url(#paint2_linear)"/>
<circle cx="370.629" cy="1299.38" r="84.7878" transform="rotate(-90 370.629 1299.38)" fill="url(#paint3_linear)"/>
<path d="M198.822 1629.61C191.428 1629.61 185.434 1623.61 185.434 1616.22L185.434 1555.97C185.434 1548.58 191.428 1542.59 198.822 1542.59L542.435 1542.59L542.435 1629.61L198.822 1629.61Z" fill="url(#paint4_linear)"/>
<path d="M542.436 1629.61C533.81 1629.61 526.817 1622.61 526.817 1613.99L526.817 1558.21C526.817 1549.58 533.81 1542.59 542.436 1542.59V1542.59L542.436 1629.61V1629.61Z" fill="url(#paint5_linear)"/>
<path fill-rule="evenodd" clip-rule="evenodd" d="M422.383 1178.73C406.709 1172.14 389.492 1168.5 371.425 1168.5C344.734 1168.5 319.899 1176.45 299.154 1190.1L318.194 439.23L409.676 439.23L422.383 1178.73Z" fill="url(#paint6_linear)"/>
<rect x="312.616" y="1127.57" width="20.0813" height="98.1753" transform="rotate(-90 312.616 1127.57)" fill="#F6AD55"/>
<rect x="312.616" y="1071.79" width="20.0813" height="98.1753" transform="rotate(-90 312.616 1071.79)" fill="#F6AD55"/>
<rect x="312.616" y="1016.01" width="20.0813" height="98.1753" transform="rotate(-90 312.616 1016.01)" fill="#F6AD55"/>
<rect x="312.616" y="960.23" width="20.0813" height="98.1753" transform="rotate(-90 312.616 960.23)" fill="#F6AD55"/>
<rect x="313.731" y="904.449" width="20.0813" height="95.9441" transform="rotate(-90 313.731 904.449)" fill="#F6AD55"/>
<rect x="314.847" y="848.667" width="20.0813" height="93.7128" transform="rotate(-90 314.847 848.667)" fill="#F6AD55"/>
<rect x="317.078" y="792.886" width="20.0813" height="89.2503" transform="rotate(-90 317.078 792.886)" fill="#F6AD55"/>
<rect x="319.31" y="737.104" width="20.0813" height="84.7878" transform="rotate(-90 319.31 737.104)" fill="#F6AD55"/>
<rect x="321.541" y="681.323" width="20.0813" height="80.3253" transform="rotate(-90 321.541 681.323)" fill="#F6AD55"/>
<path d="M320.425 625.542L320.922 605.46L401.374 605.46L402.982 625.542L320.425 625.542Z" fill="#F6AD55"/>
<path d="M322.656 569.76L322.656 549.678L400.75 549.678L400.75 569.76L322.656 569.76Z" fill="#F6AD55"/>
<path d="M322.656 513.979L323.575 493.897L400.75 493.897L400.75 513.978L322.656 513.979Z" fill="#F6AD55"/>
<path fill-rule="evenodd" clip-rule="evenodd" d="M349.182 308.561L343.268 319.332C341.106 323.27 337.074 324.984 333.244 324.601C357.577 363.259 361.755 390.841 355.97 441.934L424.179 441.934C426.961 393.313 450.673 366.888 485.562 328.007C492.641 320.117 500.181 311.715 508.099 302.511L540.379 36.2556C516.634 32.121 502.975 19.7602 484.006 0.373663L412.955 7.21863C390.209 33.0389 380.933 37.1406 359.496 38.3279L351.691 107.326C364.986 105.143 377.223 116.179 375.856 130.063L362.531 265.424C361.041 280.557 356.5 295.232 349.182 308.561ZM407.255 273.031L427.316 124.118C428.845 112.768 437.637 103.764 448.947 101.965C460.955 100.054 471.411 110.257 469.796 122.308L451.457 259.148C448.887 278.326 441.622 296.572 430.306 312.267L427.116 316.692C422.909 322.527 413.877 321.223 411.493 314.436C406.829 301.163 405.377 286.974 407.255 273.031Z" fill="url(#paint7_radial)"/>
<path d="M447.607 1009.32L424.179 441.462L409.676 441.462L419.716 1013.78L447.607 1009.32Z" fill="url(#paint8_linear)"/>
<path fill-rule="evenodd" clip-rule="evenodd" d="M318.039 441.935C324.215 387.383 319.034 359.633 290.09 316.588L321.565 38.329C343.002 37.1416 352.278 33.0399 375.023 7.21965L446.075 0.374683C465.043 19.7612 478.703 32.122 502.447 36.2566L470.167 302.512C423.226 357.079 404.969 387.855 409.938 443.42L318.039 441.935ZM349.182 308.563L343.268 319.333C339.098 326.929 327.97 326.252 324.752 318.206C318.46 302.476 316.162 285.433 318.063 268.599L334.201 125.662C335.145 117.298 341.006 110.311 349.078 107.926C363.331 103.715 377.312 115.274 375.856 130.064L362.531 265.425C361.041 280.558 356.5 295.233 349.182 308.563ZM407.255 273.032L427.316 124.119C428.845 112.769 437.637 103.765 448.947 101.966C460.955 100.055 471.411 110.258 469.796 122.309L451.457 259.149C448.887 278.327 441.622 296.573 430.306 312.268L427.116 316.693C422.909 322.528 413.877 321.224 411.493 314.437C406.829 301.164 405.377 286.975 407.255 273.032Z" fill="url(#paint9_linear)"/>
<path fill-rule="evenodd" clip-rule="evenodd" d="M406.856 273.465L427.402 119.021C428.949 107.39 437.951 98.1558 449.538 96.3123C461.824 94.3578 472.521 104.796 470.869 117.126L470.311 121.287C469.508 120.32 467.917 120.103 466.92 121.211L453.585 136.027C453.27 136.377 453.074 136.818 453.024 137.286L436.412 294.612C436.238 296.261 437.861 297.517 439.415 296.935L439.677 296.837C436.992 302.094 433.926 307.169 430.495 312.018L427.102 316.814C422.571 323.219 412.663 321.655 410.326 314.165C406.223 301.012 405.039 287.122 406.856 273.465ZM350.082 307.474L343.873 319.068C339.497 327.241 327.542 326.489 324.225 317.832C318.017 301.637 315.793 284.187 317.739 266.953L334.265 120.577C335.232 112.013 341.232 104.86 349.498 102.418C364.09 98.1063 378.406 109.941 376.915 125.084L376.685 127.424C376.426 125.656 374.124 124.832 372.817 126.284L360.467 140.012C360.136 140.381 359.936 140.85 359.901 141.345L348.541 299.435C348.375 301.746 351.405 302.747 352.649 300.793L354.975 297.137C353.518 300.655 351.886 304.105 350.082 307.474Z" fill="url(#paint10_linear)"/>
<path d="M361.347 57.4013C361.138 58.026 360.972 58.505 360.847 58.8382C360.722 59.1714 360.534 59.213 360.284 58.9631C359.701 58.38 358.993 57.7553 358.16 57.0889C357.327 56.4225 356.307 56.006 355.099 55.8394C354.308 55.7561 353.454 55.8602 352.538 56.1517C351.663 56.4016 350.997 56.9639 350.538 57.8386C350.122 58.5883 350.059 59.4838 350.351 60.525C350.601 61.6079 351.142 62.3993 351.975 62.8991C352.85 63.3572 353.808 63.7321 354.849 64.0236C355.932 64.2735 357.015 64.5026 358.098 64.7109C359.222 64.9191 360.18 65.294 360.972 65.8354C361.222 65.9604 361.409 66.1686 361.534 66.4602C361.701 66.7101 361.867 66.9391 362.034 67.1474C362.242 67.3973 362.429 67.6055 362.596 67.7721C362.804 67.9387 362.992 68.1886 363.158 68.5218C363.283 68.7717 363.429 69.0841 363.596 69.459C363.762 69.7922 363.804 70.167 363.721 70.5835C363.596 71.125 363.075 71.7081 362.159 72.3328C360.16 73.624 358.056 74.6444 355.849 75.3941C353.641 76.1855 351.309 76.3312 348.852 75.8314C348.56 75.7481 348.227 75.4566 347.852 74.9568C347.477 74.4986 347.165 74.1863 346.915 74.0197C346.248 73.6448 345.79 73.1658 345.54 72.5827C345.207 71.4998 345.041 70.3128 345.041 69.0216C345.041 68.6051 345.103 68.4177 345.228 68.4594C345.395 68.4594 345.54 68.4594 345.665 68.4594C345.915 68.4594 346.186 68.626 346.477 68.9592C346.811 69.2924 347.144 69.688 347.477 70.1462C347.852 70.5627 348.185 70.9584 348.477 71.3332C348.81 71.6664 349.081 71.833 349.289 71.833C349.997 72.1662 350.851 72.3537 351.85 72.3953C352.85 72.437 353.85 72.3537 354.849 72.1454C355.89 71.8955 356.848 71.5206 357.723 71.0208C358.639 70.4794 359.368 69.813 359.91 69.0216C359.91 68.8134 359.66 68.5635 359.16 68.2719C358.702 67.9804 358.098 67.668 357.348 67.3348C356.598 66.96 355.765 66.5851 354.849 66.2103C353.974 65.8354 353.121 65.4397 352.288 65.0232C351.496 64.6067 350.788 64.1694 350.164 63.7112C349.58 63.2531 349.185 62.7949 348.976 62.3368C348.852 62.0036 348.706 61.6704 348.539 61.3372C348.373 60.9623 348.268 60.6916 348.227 60.525C348.019 59.6087 347.977 58.7341 348.102 57.9011C348.227 57.0264 348.477 56.2559 348.852 55.5895C349.226 54.9231 349.726 54.3816 350.351 53.9651C350.976 53.507 351.684 53.2154 352.475 53.0905C353.725 52.9239 355.057 52.9239 356.474 53.0905C357.931 53.2154 359.222 53.6944 360.347 54.5274C360.68 54.8189 360.909 55.0897 361.034 55.3396C361.201 55.5895 361.326 55.881 361.409 56.2142C361.451 56.4225 361.492 56.6307 361.534 56.839C361.576 57.0056 361.513 57.193 361.347 57.4013ZM382.828 55.9018C383.37 57.2347 383.87 58.6716 384.328 60.2126C384.827 61.7537 385.161 63.2947 385.327 64.8358C385.536 66.3352 385.536 67.793 385.327 69.2091C385.161 70.6252 384.682 71.8539 383.89 72.8951C383.557 73.3116 383.161 73.4782 382.703 73.3949C382.537 73.3533 382.391 73.2491 382.266 73.0825C382.141 72.9159 381.974 72.7702 381.766 72.6452C381.6 72.5203 381.412 72.4161 381.204 72.3328C381.037 72.2495 380.871 72.0829 380.704 71.833C380.079 72.0413 379.455 72.3537 378.83 72.7702C378.247 73.145 377.643 73.5407 377.018 73.9572C376.393 74.3737 375.748 74.7694 375.081 75.1442C374.415 75.5607 373.728 75.8523 373.02 76.0189C372.27 76.2271 371.708 76.1855 371.333 75.8939C371 75.644 370.625 75.3525 370.208 75.0193C369.917 74.7694 369.729 74.6028 369.646 74.5195C369.563 74.4778 369.479 74.2279 369.396 73.7698C369.271 72.8535 369.25 71.8747 369.334 70.8334C369.459 69.7505 369.708 68.6676 370.083 67.5847C371.125 64.4193 373.249 62.2951 376.456 61.2122C376.831 61.0873 377.206 61.0665 377.58 61.1498C377.997 61.1914 378.393 61.2955 378.767 61.4621C379.142 61.6287 379.496 61.837 379.829 62.0869C380.204 62.3368 380.538 62.5867 380.829 62.8366L381.829 63.6488C382.037 62.9407 382.016 62.191 381.766 61.3997C381.558 60.5667 381.225 59.7961 380.767 59.0881C380.308 58.3384 379.788 57.672 379.205 57.0889C378.622 56.5058 378.059 56.1101 377.518 55.9018C375.394 55.9018 373.478 56.4016 371.77 57.4013C370.104 58.3592 368.48 59.6295 366.897 61.2122C366.814 61.2955 366.71 61.358 366.585 61.3997C366.501 61.4413 366.418 61.483 366.335 61.5246C366.21 61.6079 366.064 61.6287 365.897 61.5871C365.773 61.5454 365.752 61.4205 365.835 61.2122C366.085 59.8794 366.585 58.6924 367.334 57.6512C368.084 56.5682 368.959 55.6311 369.958 54.8398C370.958 54.0484 372.02 53.382 373.145 52.8406C374.269 52.2991 375.373 51.9034 376.456 51.6535C376.622 51.5702 376.768 51.5286 376.893 51.5286C377.06 51.4869 377.247 51.4661 377.455 51.4661C377.747 51.4661 378.018 51.5494 378.268 51.716C378.517 51.8826 378.809 52.07 379.142 52.2783C379.559 52.4865 379.975 52.7364 380.392 53.028C380.808 53.2779 381.183 53.5903 381.516 53.9651C381.808 54.2983 382.058 54.6315 382.266 54.9647C382.474 55.2979 382.662 55.6103 382.828 55.9018ZM380.704 67.0224C380.454 66.481 380.059 65.9812 379.517 65.523C379.017 65.0649 378.434 64.7317 377.768 64.5234C377.101 64.2735 376.373 64.2111 375.581 64.336C374.831 64.461 374.061 64.8358 373.27 65.4606C373.02 66.002 372.77 66.6059 372.52 67.2723C372.27 67.8971 372.083 68.5427 371.958 69.2091C371.833 69.8338 371.77 70.4794 371.77 71.1458C371.812 71.7705 371.958 72.3537 372.207 72.8951C373.79 72.3537 375.331 71.7289 376.831 71.0208C378.33 70.3128 379.621 69.688 380.704 69.1466C380.954 68.8967 381.1 68.6884 381.141 68.5218C381.183 68.3552 381.162 68.2095 381.079 68.0845C381.037 67.9596 380.954 67.8138 380.829 67.6472C380.746 67.4806 380.704 67.2723 380.704 67.0224ZM391.659 55.2146C391.909 56.2975 392.013 57.4221 391.972 58.5883C391.93 59.7545 391.867 60.9415 391.784 62.1494C391.743 63.3156 391.743 64.5026 391.784 65.7105C391.867 66.8767 392.18 67.9804 392.721 69.0216C393.679 66.6476 394.991 64.5026 396.657 62.5867C398.323 60.6291 400.093 58.8798 401.968 57.3388C402.218 57.1305 402.467 57.0056 402.717 56.9639C403.009 56.8806 403.28 56.7973 403.53 56.714C403.738 56.6307 403.925 56.5683 404.092 56.5266C404.3 56.4433 404.571 56.485 404.904 56.6516C405.737 57.1097 406.216 57.9844 406.341 59.2755C406.466 60.5667 406.528 62.3993 406.528 64.7733C407.153 64.1486 407.778 63.4613 408.403 62.7116C409.069 61.9203 409.735 61.1706 410.402 60.4625C411.068 59.7545 411.755 59.1297 412.463 58.5883C413.172 58.0468 413.921 57.6512 414.713 57.4013C414.962 57.318 415.212 57.318 415.462 57.4013C415.754 57.4429 416.025 57.4637 416.274 57.4637C416.441 57.4637 416.587 57.4429 416.712 57.4013C416.837 57.318 416.983 57.2971 417.149 57.3388C417.399 57.3804 417.607 57.5054 417.774 57.7136C417.982 57.9219 418.128 58.151 418.211 58.4009C418.378 59.0256 418.607 59.9003 418.898 61.0248C419.19 62.1077 419.44 63.2323 419.648 64.3985C419.898 65.523 420.085 66.5851 420.21 67.5847C420.335 68.5843 420.335 69.2924 420.21 69.7089C420.127 70.0837 420.023 70.3336 419.898 70.4586C419.815 70.5835 419.606 70.8126 419.273 71.1458C419.19 71.1458 419.086 71.2083 418.961 71.3332C418.878 71.4582 418.773 71.5831 418.649 71.7081C418.482 71.8747 418.336 72.0413 418.211 72.2079C417.67 71.4165 417.253 70.5627 416.962 69.6464C416.67 68.7301 416.42 67.7721 416.212 66.7725C416.004 65.7729 415.816 64.7525 415.65 63.7113C415.483 62.67 415.275 61.6079 415.025 60.525C413.817 61.1498 412.859 61.8786 412.151 62.7116C411.485 63.503 410.943 64.3568 410.527 65.2731C410.11 66.1478 409.735 67.0433 409.402 67.9596C409.069 68.8759 408.652 69.7505 408.153 70.5835C407.695 71.2916 407.236 71.8539 406.778 72.2704C406.32 72.6869 405.945 72.8743 405.654 72.8326C405.404 72.791 405.216 72.5619 405.091 72.1454C404.966 71.7289 404.8 71.1041 404.592 70.2711C404.175 68.5635 403.779 66.7309 403.405 64.7733C403.071 62.8158 402.697 61.0456 402.28 59.4629C401.489 59.7128 400.697 60.171 399.906 60.8374C399.156 61.4621 398.448 62.2118 397.782 63.0865C397.115 63.9195 396.511 64.8566 395.97 65.8979C395.47 66.9391 395.095 67.9804 394.845 69.0216C395.387 70.1045 395.408 71 394.908 71.7081C394.7 72.0413 394.408 72.3328 394.033 72.5827C393.658 72.791 393.221 73.0201 392.721 73.27C392.43 73.5615 392.117 73.6656 391.784 73.5823C391.451 73.499 391.18 73.3116 390.972 73.0201C390.764 72.6869 390.639 72.4161 390.597 72.2079C390.347 70.8751 390.097 69.5006 389.847 68.0845C389.598 66.6268 389.431 65.169 389.348 63.7112C389.306 62.2535 389.368 60.8166 389.535 59.4005C389.702 57.9427 390.056 56.5474 390.597 55.2146C390.68 54.9647 390.764 54.8398 390.847 54.8398C390.93 54.8398 391.014 54.8814 391.097 54.9647C391.18 55.0064 391.264 55.048 391.347 55.0897C391.43 55.1313 391.472 55.1521 391.472 55.1521C391.513 55.1521 391.576 55.173 391.659 55.2146ZM426.446 43.4693C426.529 43.5526 426.592 43.6151 426.633 43.6567C426.716 43.6984 426.758 43.7817 426.758 43.9066C426.758 45.1978 426.821 46.5514 426.946 47.9675C427.07 49.3836 427.195 50.8205 427.32 52.2783C427.445 53.6944 427.549 55.1105 427.633 56.5266C427.758 57.9427 427.82 59.2755 427.82 60.525C428.112 60.1085 428.445 59.6295 428.82 59.0881C429.236 58.5466 429.715 58.0468 430.257 57.5887C430.798 57.1305 431.381 56.7557 432.006 56.4641C432.672 56.1309 433.401 55.9435 434.193 55.9019C434.484 55.6103 434.755 55.4645 435.005 55.4645C435.421 55.4229 435.817 55.5687 436.192 55.9019C436.567 56.1934 436.962 56.5474 437.379 56.9639C437.92 57.5054 438.378 58.151 438.753 58.9007C439.128 59.6504 439.378 60.4209 439.503 61.2122C439.628 62.0036 439.607 62.7741 439.441 63.5238C439.316 64.2735 438.982 64.9191 438.441 65.4606C437.9 67.0433 437.15 68.3761 436.192 69.459C435.234 70.5002 434.213 71.2916 433.131 71.833L429.382 73.7073C429.132 73.8322 428.882 73.9988 428.632 74.2071C428.424 74.3737 428.195 74.5195 427.945 74.6444C427.737 74.7277 427.57 74.6861 427.445 74.5195C427.362 74.3945 427.216 74.2904 427.008 74.2071C426.508 73.9988 426.196 73.6865 426.071 73.27C425.946 72.8951 425.863 72.5827 425.821 72.3328C425.779 72.0829 425.717 71.7289 425.634 71.2708C425.175 69.2299 424.842 66.9808 424.634 64.5234C424.467 62.0661 424.363 59.6295 424.322 57.2138C424.322 54.7565 424.342 52.4032 424.384 50.1541C424.467 47.8634 424.551 45.885 424.634 44.219C424.634 43.6775 424.655 43.3235 424.696 43.1569C424.78 42.9903 424.926 42.8654 425.134 42.7821C425.217 42.7404 425.321 42.6988 425.446 42.6571C425.571 42.6155 425.738 42.6363 425.946 42.7196C426.071 42.7612 426.154 42.8654 426.196 43.032C426.279 43.1569 426.362 43.3027 426.446 43.4693ZM437.379 61.712C437.379 61.4621 437.254 61.1498 437.004 60.7749C436.796 60.3584 436.525 59.9627 436.192 59.5879C435.9 59.213 435.567 58.8798 435.192 58.5883C434.817 58.2967 434.484 58.1093 434.193 58.026C433.735 58.151 433.151 58.4633 432.443 58.9631C431.735 59.4213 431.152 59.9419 430.694 60.525C429.486 61.9828 428.841 63.5238 428.757 65.1482C428.674 66.7725 428.903 68.3761 429.445 69.9588C429.819 69.8338 430.298 69.6256 430.881 69.334C431.506 69.0425 432.152 68.7093 432.818 68.3344C433.485 67.9596 434.13 67.5847 434.755 67.2099C435.38 66.7934 435.9 66.4185 436.317 66.0853C436.775 65.5439 437.067 64.9608 437.191 64.336C437.316 63.6696 437.379 62.7949 437.379 61.712ZM459.031 55.9019C459.572 57.2347 460.072 58.6716 460.53 60.2126C461.03 61.7537 461.363 63.2948 461.53 64.8358C461.738 66.3352 461.738 67.793 461.53 69.2091C461.363 70.6252 460.884 71.8539 460.093 72.8951C459.76 73.3116 459.364 73.4782 458.906 73.3949C458.739 73.3533 458.594 73.2491 458.469 73.0825C458.344 72.9159 458.177 72.7702 457.969 72.6452C457.802 72.5203 457.615 72.4161 457.407 72.3328C457.24 72.2495 457.073 72.0829 456.907 71.833C456.282 72.0413 455.657 72.3537 455.033 72.7702C454.449 73.145 453.846 73.5407 453.221 73.9572C452.596 74.3737 451.95 74.7694 451.284 75.1442C450.618 75.5607 449.93 75.8523 449.222 76.0189C448.473 76.2271 447.91 76.1855 447.536 75.8939C447.202 75.644 446.827 75.3525 446.411 75.0193C446.119 74.7694 445.932 74.6028 445.849 74.5195C445.765 74.4778 445.682 74.2279 445.599 73.7698C445.474 72.8535 445.453 71.8747 445.536 70.8334C445.661 69.7505 445.911 68.6676 446.286 67.5847C447.327 64.4193 449.451 62.2951 452.658 61.2122C453.033 61.0873 453.408 61.0665 453.783 61.1498C454.2 61.1914 454.595 61.2955 454.97 61.4621C455.345 61.6287 455.699 61.837 456.032 62.0869C456.407 62.3368 456.74 62.5867 457.032 62.8366L458.031 63.6488C458.24 62.9407 458.219 62.191 457.969 61.3997C457.761 60.5667 457.427 59.7961 456.969 59.0881C456.511 58.3384 455.99 57.672 455.407 57.0889C454.824 56.5058 454.262 56.1101 453.721 55.9019C451.596 55.9019 449.68 56.4017 447.973 57.4013C446.307 58.3592 444.682 59.6295 443.1 61.2122C443.016 61.2955 442.912 61.358 442.787 61.3997C442.704 61.4413 442.621 61.483 442.537 61.5246C442.413 61.6079 442.267 61.6287 442.1 61.5871C441.975 61.5454 441.954 61.4205 442.038 61.2122C442.288 59.8794 442.787 58.6924 443.537 57.6512C444.287 56.5683 445.161 55.6311 446.161 54.8398C447.161 54.0484 448.223 53.382 449.347 52.8406C450.472 52.2991 451.576 51.9034 452.658 51.6535C452.825 51.5702 452.971 51.5286 453.096 51.5286C453.262 51.4869 453.45 51.4661 453.658 51.4661C453.95 51.4661 454.22 51.5494 454.47 51.716C454.72 51.8826 455.012 52.07 455.345 52.2783C455.761 52.4865 456.178 52.7364 456.594 53.028C457.011 53.2779 457.386 53.5903 457.719 53.9651C458.011 54.2983 458.26 54.6315 458.469 54.9647C458.677 55.2979 458.864 55.6103 459.031 55.9019ZM456.907 67.0224C456.657 66.481 456.261 65.9812 455.72 65.523C455.22 65.0649 454.637 64.7317 453.97 64.5234C453.304 64.2735 452.575 64.2111 451.784 64.336C451.034 64.461 450.264 64.8358 449.472 65.4606C449.222 66.002 448.972 66.6059 448.723 67.2723C448.473 67.8971 448.285 68.5427 448.16 69.2091C448.035 69.8338 447.973 70.4794 447.973 71.1458C448.014 71.7706 448.16 72.3537 448.41 72.8951C449.993 72.3537 451.534 71.7289 453.033 71.0209C454.533 70.3128 455.824 69.688 456.907 69.1466C457.157 68.8967 457.302 68.6884 457.344 68.5218C457.386 68.3552 457.365 68.2095 457.282 68.0845C457.24 67.9596 457.157 67.8138 457.032 67.6472C456.948 67.4806 456.907 67.2723 456.907 67.0224Z" fill="#FFB152"/>
<defs>
<linearGradient id="paint0_linear" x1="507.851" y1="1475.65" x2="825.805" y2="1474.53" gradientUnits="userSpaceOnUse">
<stop stop-color="#FFFAF0"/>
<stop offset="1" stop-color="#F6AD55"/>
</linearGradient>
<linearGradient id="paint1_linear" x1="0.239874" y1="1474.53" x2="723.167" y2="1474.53" gradientUnits="userSpaceOnUse">
<stop stop-color="#FBD38D"/>
<stop offset="1" stop-color="#ED8936"/>
</linearGradient>
<linearGradient id="paint2_linear" x1="370.629" y1="1167.74" x2="370.629" y2="1431.02" gradientUnits="userSpaceOnUse">
<stop stop-color="#7B341E"/>
<stop offset="1" stop-color="#C05621"/>
</linearGradient>
<linearGradient id="paint3_linear" x1="370.629" y1="1214.59" x2="370.629" y2="1384.17" gradientUnits="userSpaceOnUse">
<stop stop-color="#C05621"/>
<stop offset="1" stop-color="#1A202C"/>
</linearGradient>
<linearGradient id="paint4_linear" x1="185.434" y1="1586.1" x2="542.435" y2="1586.1" gradientUnits="userSpaceOnUse">
<stop stop-color="#9C4221"/>
<stop offset="1" stop-color="#7B341E"/>
</linearGradient>
<linearGradient id="paint5_linear" x1="526.817" y1="1586.1" x2="542.436" y2="1586.1" gradientUnits="userSpaceOnUse">
<stop stop-color="#ED8936"/>
<stop offset="1" stop-color="#C05621"/>
</linearGradient>
<linearGradient id="paint6_linear" x1="299.154" y1="814.664" x2="422.383" y2="814.664" gradientUnits="userSpaceOnUse">
<stop stop-color="#C05621"/>
<stop offset="1" stop-color="#DD6B20"/>
</linearGradient>
<radialGradient id="paint7_radial" cx="0" cy="0" r="1" gradientUnits="userSpaceOnUse" gradientTransform="translate(436.485 255.932) rotate(90.8136) scale(258.602 90.6267)">
<stop stop-color="#FFFAF0"/>
<stop offset="1" stop-color="#F6AD55"/>
</radialGradient>
<linearGradient id="paint8_linear" x1="404.097" y1="739.335" x2="434.219" y2="739.335" gradientUnits="userSpaceOnUse">
<stop stop-color="#FFFAF0"/>
<stop offset="1" stop-color="#ED8936"/>
</linearGradient>
<linearGradient id="paint9_linear" x1="399.126" y1="0.010884" x2="391.971" y2="443.13" gradientUnits="userSpaceOnUse">
<stop stop-color="#C05621"/>
<stop offset="1" stop-color="#7B341E"/>
</linearGradient>
<linearGradient id="paint10_linear" x1="355.01" y1="192.676" x2="394.034" y2="324.787" gradientUnits="userSpaceOnUse">
<stop offset="0.161769" stop-color="#ED8936"/>
<stop offset="1" stop-color="#C05621"/>
</linearGradient>
</defs>
</svg>
