<svg width="370" height="869" viewBox="0 0 370 869" fill="none" xmlns="http://www.w3.org/2000/svg">
<path fill-rule="evenodd" clip-rule="evenodd" d="M321.825 563.328C311.33 587.47 313.29 629.476 332.026 647.967C355.724 671.356 370 701.544 370 734.5C370 841.5 297.47 869 208 869C118.53 869 46 833 46 734.5C46 701.121 60.6448 670.583 84.8907 647.071C103.783 628.751 106.039 586.763 95.824 562.509C92.0436 553.533 90 543.951 90 534C90 483.19 120.5 454 209 454C297.5 454 328 483.19 328 534C328 544.254 325.83 554.117 321.825 563.328Z" fill="url(#paint0_linear)"/>
<path fill-rule="evenodd" clip-rule="evenodd" d="M275.825 563.328C265.33 587.47 267.29 629.476 286.026 647.967C309.724 671.356 324 701.544 324 734.5C324 841.5 251.47 869 162 869C72.5299 869 3.65734e-05 833 3.22678e-05 734.5C3.08088e-05 701.121 14.6448 670.583 38.8907 647.071C57.7835 628.751 60.0388 586.763 49.824 562.509C46.0436 553.533 44 543.951 44 534C44 483.19 74.5 454 163 454C251.5 454 282 483.19 282 534C282 544.254 279.83 554.117 275.825 563.328Z" fill="url(#paint1_linear)"/>
<circle cx="166" cy="583" r="54" transform="rotate(-90 166 583)" stroke="#7B341E" stroke-width="10"/>
<circle cx="166" cy="583" r="33" transform="rotate(-90 166 583)" stroke="#7B341E" stroke-width="10"/>
<rect x="88" y="726" width="29" height="150" rx="5" transform="rotate(-90 88 726)" stroke="#C05621" stroke-width="10"/>
<path fill-rule="evenodd" clip-rule="evenodd" d="M189.195 528.926C182.17 525.975 174.454 524.344 166.357 524.344C154.395 524.344 143.264 527.904 133.966 534.022L142.5 197.5L183.5 197.5L189.195 528.926Z" fill="url(#paint2_linear)"/>
<rect x="140" y="506" width="9" height="44" transform="rotate(-90 140 506)" fill="#F6AD55"/>
<rect x="140" y="481" width="9" height="44" transform="rotate(-90 140 481)" fill="#F6AD55"/>
<rect x="140" y="456" width="9" height="44" transform="rotate(-90 140 456)" fill="#F6AD55"/>
<rect x="140" y="431" width="9" height="44" transform="rotate(-90 140 431)" fill="#F6AD55"/>
<rect x="140.5" y="406" width="9" height="43" transform="rotate(-90 140.5 406)" fill="#F6AD55"/>
<rect x="141" y="381" width="9" height="42" transform="rotate(-90 141 381)" fill="#F6AD55"/>
<rect x="142" y="356" width="9" height="40" transform="rotate(-90 142 356)" fill="#F6AD55"/>
<rect x="143" y="331" width="9" height="38" transform="rotate(-90 143 331)" fill="#F6AD55"/>
<rect x="144" y="306" width="9" height="36" transform="rotate(-90 144 306)" fill="#F6AD55"/>
<path d="M143.5 281L143.723 272L179.779 272L180.5 281L143.5 281Z" fill="#F6AD55"/>
<path d="M144.5 256L144.5 247L179.5 247L179.5 256L144.5 256Z" fill="#F6AD55"/>
<path d="M144.5 231L144.912 222L179.5 222L179.5 231L144.5 231Z" fill="#F6AD55"/>
<path fill-rule="evenodd" clip-rule="evenodd" d="M156.388 138.937L153.738 143.764C152.769 145.529 150.962 146.298 149.245 146.126C160.151 163.452 162.023 175.813 159.431 198.712L190 198.712C191.247 176.921 201.874 165.078 217.511 147.652C220.684 144.117 224.062 140.351 227.611 136.226L242.078 16.896C231.437 15.0429 225.315 9.50312 216.813 0.814506L184.97 3.88227C174.776 15.4543 170.618 17.2926 161.011 17.8248L157.513 48.748C163.471 47.7697 168.955 52.716 168.343 58.9383L162.371 119.604C161.703 126.387 159.668 132.963 156.388 138.937ZM182.415 123.014L191.406 56.2741C192.091 51.1873 196.031 47.1518 201.101 46.3454C206.482 45.4892 211.169 50.0617 210.445 55.4629L202.225 116.791C201.073 125.386 197.817 133.564 192.746 140.598L191.317 142.581C189.431 145.197 185.383 144.612 184.314 141.57C182.224 135.622 181.573 129.262 182.415 123.014Z" fill="url(#paint3_radial)"/>
<path d="M200.5 453L190 198.5L183.5 198.5L188 455L200.5 453Z" fill="url(#paint4_linear)"/>
<path fill-rule="evenodd" clip-rule="evenodd" d="M142.431 198.712C145.198 174.263 142.877 161.826 129.904 142.534L144.011 17.8247C153.618 17.2926 157.776 15.4543 167.97 3.88224L199.813 0.814479C208.315 9.50309 214.437 15.0429 225.078 16.896L210.611 136.226C189.573 160.681 181.391 174.474 183.618 199.378L142.431 198.712ZM156.388 138.937L153.738 143.764C151.869 147.169 146.882 146.865 145.439 143.259C142.619 136.21 141.589 128.571 142.441 121.027L149.674 56.9655C150.097 53.2167 152.724 50.0855 156.342 49.0166C162.729 47.1293 168.995 52.3098 168.343 58.9383L162.371 119.604C161.703 126.387 159.668 132.963 156.388 138.937ZM182.415 123.014L191.406 56.2741C192.091 51.1872 196.031 47.1518 201.101 46.3454C206.482 45.4892 211.169 50.0616 210.445 55.4629L202.225 116.791C201.073 125.386 197.817 133.564 192.746 140.598L191.317 142.581C189.431 145.197 185.383 144.612 184.314 141.57C182.224 135.622 181.573 129.262 182.415 123.014Z" fill="url(#paint5_linear)"/>
<path fill-rule="evenodd" clip-rule="evenodd" d="M182.236 123.208L191.444 53.9895C192.138 48.7768 196.172 44.6382 201.365 43.812C206.872 42.9361 211.666 47.6141 210.925 53.1401L210.675 55.005C210.315 54.5717 209.602 54.4744 209.155 54.9711L203.179 61.6115C203.038 61.7683 202.95 61.9657 202.928 62.1754L195.483 132.685C195.405 133.425 196.132 133.988 196.828 133.727L196.946 133.683C195.742 136.039 194.368 138.313 192.831 140.486L191.31 142.636C189.279 145.507 184.839 144.805 183.791 141.449C181.953 135.554 181.422 129.329 182.236 123.208ZM156.791 138.45L154.009 143.646C152.047 147.309 146.69 146.972 145.203 143.092C142.421 135.834 141.424 128.013 142.296 120.289L149.703 54.687C150.136 50.8487 152.825 47.6428 156.53 46.5483C163.07 44.6161 169.485 49.9202 168.817 56.7069L168.714 57.7559C168.598 56.9632 167.566 56.5939 166.981 57.2446L161.446 63.3975C161.297 63.5628 161.208 63.7729 161.192 63.9946L156.101 134.847C156.026 135.883 157.384 136.332 157.942 135.456L158.984 133.817C158.331 135.394 157.6 136.94 156.791 138.45Z" fill="url(#paint6_linear)"/>
<path d="M161.84 26.412C161.747 26.692 161.672 26.9067 161.616 27.056C161.56 27.2053 161.476 27.224 161.364 27.112C161.103 26.8507 160.785 26.5707 160.412 26.272C160.039 25.9733 159.581 25.7867 159.04 25.712C158.685 25.6747 158.303 25.7213 157.892 25.852C157.5 25.964 157.201 26.216 156.996 26.608C156.809 26.944 156.781 27.3453 156.912 27.812C157.024 28.2973 157.267 28.652 157.64 28.876C158.032 29.0813 158.461 29.2493 158.928 29.38C159.413 29.492 159.899 29.5947 160.384 29.688C160.888 29.7813 161.317 29.9493 161.672 30.192C161.784 30.248 161.868 30.3413 161.924 30.472C161.999 30.584 162.073 30.6867 162.148 30.78C162.241 30.892 162.325 30.9853 162.4 31.06C162.493 31.1347 162.577 31.2467 162.652 31.396C162.708 31.508 162.773 31.648 162.848 31.816C162.923 31.9653 162.941 32.1333 162.904 32.32C162.848 32.5627 162.615 32.824 162.204 33.104C161.308 33.6827 160.365 34.14 159.376 34.476C158.387 34.8307 157.341 34.896 156.24 34.672C156.109 34.6347 155.96 34.504 155.792 34.28C155.624 34.0747 155.484 33.9347 155.372 33.86C155.073 33.692 154.868 33.4773 154.756 33.216C154.607 32.7307 154.532 32.1987 154.532 31.62C154.532 31.4333 154.56 31.3493 154.616 31.368C154.691 31.368 154.756 31.368 154.812 31.368C154.924 31.368 155.045 31.4427 155.176 31.592C155.325 31.7413 155.475 31.9187 155.624 32.124C155.792 32.3107 155.941 32.488 156.072 32.656C156.221 32.8053 156.343 32.88 156.436 32.88C156.753 33.0293 157.136 33.1133 157.584 33.132C158.032 33.1507 158.48 33.1133 158.928 33.02C159.395 32.908 159.824 32.74 160.216 32.516C160.627 32.2733 160.953 31.9747 161.196 31.62C161.196 31.5267 161.084 31.4147 160.86 31.284C160.655 31.1533 160.384 31.0133 160.048 30.864C159.712 30.696 159.339 30.528 158.928 30.36C158.536 30.192 158.153 30.0147 157.78 29.828C157.425 29.6413 157.108 29.4453 156.828 29.24C156.567 29.0347 156.389 28.8293 156.296 28.624C156.24 28.4747 156.175 28.3253 156.1 28.176C156.025 28.008 155.979 27.8867 155.96 27.812C155.867 27.4013 155.848 27.0093 155.904 26.636C155.96 26.244 156.072 25.8987 156.24 25.6C156.408 25.3013 156.632 25.0587 156.912 24.872C157.192 24.6667 157.509 24.536 157.864 24.48C158.424 24.4053 159.021 24.4053 159.656 24.48C160.309 24.536 160.888 24.7507 161.392 25.124C161.541 25.2547 161.644 25.376 161.7 25.488C161.775 25.6 161.831 25.7307 161.868 25.88C161.887 25.9733 161.905 26.0667 161.924 26.16C161.943 26.2347 161.915 26.3187 161.84 26.412Z" fill="#FFB152"/>
<path d="M171.468 25.74C171.71 26.3373 171.934 26.9813 172.14 27.672C172.364 28.3627 172.513 29.0533 172.588 29.744C172.681 30.416 172.681 31.0693 172.588 31.704C172.513 32.3387 172.298 32.8893 171.944 33.356C171.794 33.5427 171.617 33.6173 171.412 33.58C171.337 33.5613 171.272 33.5147 171.216 33.44C171.16 33.3653 171.085 33.3 170.992 33.244C170.917 33.188 170.833 33.1413 170.74 33.104C170.665 33.0667 170.59 32.992 170.516 32.88C170.236 32.9733 169.956 33.1133 169.676 33.3C169.414 33.468 169.144 33.6453 168.864 33.832C168.584 34.0187 168.294 34.196 167.996 34.364C167.697 34.5507 167.389 34.6813 167.072 34.756C166.736 34.8493 166.484 34.8307 166.316 34.7C166.166 34.588 165.998 34.4573 165.812 34.308C165.681 34.196 165.597 34.1213 165.56 34.084C165.522 34.0653 165.485 33.9533 165.448 33.748C165.392 33.3373 165.382 32.8987 165.42 32.432C165.476 31.9467 165.588 31.4613 165.756 30.976C166.222 29.5573 167.174 28.6053 168.612 28.12C168.78 28.064 168.948 28.0547 169.116 28.092C169.302 28.1107 169.48 28.1573 169.648 28.232C169.816 28.3067 169.974 28.4 170.124 28.512C170.292 28.624 170.441 28.736 170.572 28.848L171.02 29.212C171.113 28.8947 171.104 28.5587 170.992 28.204C170.898 27.8307 170.749 27.4853 170.544 27.168C170.338 26.832 170.105 26.5333 169.844 26.272C169.582 26.0107 169.33 25.8333 169.088 25.74C168.136 25.74 167.277 25.964 166.512 26.412C165.765 26.8413 165.037 27.4107 164.328 28.12C164.29 28.1573 164.244 28.1853 164.188 28.204C164.15 28.2227 164.113 28.2413 164.076 28.26C164.02 28.2973 163.954 28.3067 163.88 28.288C163.824 28.2693 163.814 28.2133 163.852 28.12C163.964 27.5227 164.188 26.9907 164.524 26.524C164.86 26.0387 165.252 25.6187 165.7 25.264C166.148 24.9093 166.624 24.6107 167.128 24.368C167.632 24.1253 168.126 23.948 168.612 23.836C168.686 23.7987 168.752 23.78 168.808 23.78C168.882 23.7613 168.966 23.752 169.06 23.752C169.19 23.752 169.312 23.7893 169.424 23.864C169.536 23.9387 169.666 24.0227 169.816 24.116C170.002 24.2093 170.189 24.3213 170.376 24.452C170.562 24.564 170.73 24.704 170.88 24.872C171.01 25.0213 171.122 25.1707 171.216 25.32C171.309 25.4693 171.393 25.6093 171.468 25.74ZM170.516 30.724C170.404 30.4813 170.226 30.2573 169.984 30.052C169.76 29.8467 169.498 29.6973 169.2 29.604C168.901 29.492 168.574 29.464 168.22 29.52C167.884 29.576 167.538 29.744 167.184 30.024C167.072 30.2667 166.96 30.5373 166.848 30.836C166.736 31.116 166.652 31.4053 166.596 31.704C166.54 31.984 166.512 32.2733 166.512 32.572C166.53 32.852 166.596 33.1133 166.708 33.356C167.417 33.1133 168.108 32.8333 168.78 32.516C169.452 32.1987 170.03 31.9187 170.516 31.676C170.628 31.564 170.693 31.4707 170.712 31.396C170.73 31.3213 170.721 31.256 170.684 31.2C170.665 31.144 170.628 31.0787 170.572 31.004C170.534 30.9293 170.516 30.836 170.516 30.724Z" fill="#FFB152"/>
<path d="M175.425 25.432C175.537 25.9173 175.584 26.4213 175.565 26.944C175.547 27.4667 175.519 27.9987 175.481 28.54C175.463 29.0627 175.463 29.5947 175.481 30.136C175.519 30.6587 175.659 31.1533 175.901 31.62C176.331 30.556 176.919 29.5947 177.665 28.736C178.412 27.8587 179.205 27.0747 180.045 26.384C180.157 26.2907 180.269 26.2347 180.381 26.216C180.512 26.1787 180.633 26.1413 180.745 26.104C180.839 26.0667 180.923 26.0387 180.997 26.02C181.091 25.9827 181.212 26.0013 181.361 26.076C181.735 26.2813 181.949 26.6733 182.005 27.252C182.061 27.8307 182.089 28.652 182.089 29.716C182.369 29.436 182.649 29.128 182.929 28.792C183.228 28.4373 183.527 28.1013 183.825 27.784C184.124 27.4667 184.432 27.1867 184.749 26.944C185.067 26.7013 185.403 26.524 185.757 26.412C185.869 26.3747 185.981 26.3747 186.093 26.412C186.224 26.4307 186.345 26.44 186.457 26.44C186.532 26.44 186.597 26.4307 186.653 26.412C186.709 26.3747 186.775 26.3653 186.849 26.384C186.961 26.4027 187.055 26.4587 187.129 26.552C187.223 26.6453 187.288 26.748 187.325 26.86C187.4 27.14 187.503 27.532 187.633 28.036C187.764 28.5213 187.876 29.0253 187.969 29.548C188.081 30.052 188.165 30.528 188.221 30.976C188.277 31.424 188.277 31.7413 188.221 31.928C188.184 32.096 188.137 32.208 188.081 32.264C188.044 32.32 187.951 32.4227 187.801 32.572C187.764 32.572 187.717 32.6 187.661 32.656C187.624 32.712 187.577 32.768 187.521 32.824C187.447 32.8987 187.381 32.9733 187.325 33.048C187.083 32.6933 186.896 32.3107 186.765 31.9C186.635 31.4893 186.523 31.06 186.429 30.612C186.336 30.164 186.252 29.7067 186.177 29.24C186.103 28.7733 186.009 28.2973 185.897 27.812C185.356 28.092 184.927 28.4187 184.609 28.792C184.311 29.1467 184.068 29.5293 183.881 29.94C183.695 30.332 183.527 30.7333 183.377 31.144C183.228 31.5547 183.041 31.9467 182.817 32.32C182.612 32.6373 182.407 32.8893 182.201 33.076C181.996 33.2627 181.828 33.3467 181.697 33.328C181.585 33.3093 181.501 33.2067 181.445 33.02C181.389 32.8333 181.315 32.5533 181.221 32.18C181.035 31.4147 180.857 30.5933 180.689 29.716C180.54 28.8387 180.372 28.0453 180.185 27.336C179.831 27.448 179.476 27.6533 179.121 27.952C178.785 28.232 178.468 28.568 178.169 28.96C177.871 29.3333 177.6 29.7533 177.357 30.22C177.133 30.6867 176.965 31.1533 176.853 31.62C177.096 32.1053 177.105 32.5067 176.881 32.824C176.788 32.9733 176.657 33.104 176.489 33.216C176.321 33.3093 176.125 33.412 175.901 33.524C175.771 33.6547 175.631 33.7013 175.481 33.664C175.332 33.6267 175.211 33.5427 175.117 33.412C175.024 33.2627 174.968 33.1413 174.949 33.048C174.837 32.4507 174.725 31.8347 174.613 31.2C174.501 30.5467 174.427 29.8933 174.389 29.24C174.371 28.5867 174.399 27.9427 174.473 27.308C174.548 26.6547 174.707 26.0293 174.949 25.432C174.987 25.32 175.024 25.264 175.061 25.264C175.099 25.264 175.136 25.2827 175.173 25.32C175.211 25.3387 175.248 25.3573 175.285 25.376C175.323 25.3947 175.341 25.404 175.341 25.404C175.36 25.404 175.388 25.4133 175.425 25.432Z" fill="#FFB152"/>
<path d="M191.016 20.168C191.053 20.2053 191.081 20.2333 191.1 20.252C191.137 20.2707 191.156 20.308 191.156 20.364C191.156 20.9427 191.184 21.5493 191.24 22.184C191.296 22.8187 191.352 23.4627 191.408 24.116C191.464 24.7507 191.511 25.3853 191.548 26.02C191.604 26.6547 191.632 27.252 191.632 27.812C191.763 27.6253 191.912 27.4107 192.08 27.168C192.267 26.9253 192.481 26.7013 192.724 26.496C192.967 26.2907 193.228 26.1227 193.508 25.992C193.807 25.8427 194.133 25.7587 194.488 25.74C194.619 25.6093 194.74 25.544 194.852 25.544C195.039 25.5253 195.216 25.5907 195.384 25.74C195.552 25.8707 195.729 26.0293 195.916 26.216C196.159 26.4587 196.364 26.748 196.532 27.084C196.7 27.42 196.812 27.7653 196.868 28.12C196.924 28.4747 196.915 28.82 196.84 29.156C196.784 29.492 196.635 29.7813 196.392 30.024C196.149 30.7333 195.813 31.3307 195.384 31.816C194.955 32.2827 194.497 32.6373 194.012 32.88L192.332 33.72C192.22 33.776 192.108 33.8507 191.996 33.944C191.903 34.0187 191.8 34.084 191.688 34.14C191.595 34.1773 191.52 34.1587 191.464 34.084C191.427 34.028 191.361 33.9813 191.268 33.944C191.044 33.8507 190.904 33.7107 190.848 33.524C190.792 33.356 190.755 33.216 190.736 33.104C190.717 32.992 190.689 32.8333 190.652 32.628C190.447 31.7133 190.297 30.7053 190.204 29.604C190.129 28.5027 190.083 27.4107 190.064 26.328C190.064 25.2267 190.073 24.172 190.092 23.164C190.129 22.1373 190.167 21.2507 190.204 20.504C190.204 20.2613 190.213 20.1027 190.232 20.028C190.269 19.9533 190.335 19.8973 190.428 19.86C190.465 19.8413 190.512 19.8227 190.568 19.804C190.624 19.7853 190.699 19.7947 190.792 19.832C190.848 19.8507 190.885 19.8973 190.904 19.972C190.941 20.028 190.979 20.0933 191.016 20.168ZM195.916 28.344C195.916 28.232 195.86 28.092 195.748 27.924C195.655 27.7373 195.533 27.56 195.384 27.392C195.253 27.224 195.104 27.0747 194.936 26.944C194.768 26.8133 194.619 26.7293 194.488 26.692C194.283 26.748 194.021 26.888 193.704 27.112C193.387 27.3173 193.125 27.5507 192.92 27.812C192.379 28.4653 192.089 29.156 192.052 29.884C192.015 30.612 192.117 31.3307 192.36 32.04C192.528 31.984 192.743 31.8907 193.004 31.76C193.284 31.6293 193.573 31.48 193.872 31.312C194.171 31.144 194.46 30.976 194.74 30.808C195.02 30.6213 195.253 30.4533 195.44 30.304C195.645 30.0613 195.776 29.8 195.832 29.52C195.888 29.2213 195.916 28.8293 195.916 28.344Z" fill="#FFB152"/>
<path d="M205.62 25.74C205.863 26.3373 206.087 26.9813 206.292 27.672C206.516 28.3627 206.665 29.0533 206.74 29.744C206.833 30.416 206.833 31.0693 206.74 31.704C206.665 32.3387 206.451 32.8893 206.096 33.356C205.947 33.5427 205.769 33.6173 205.564 33.58C205.489 33.5613 205.424 33.5147 205.368 33.44C205.312 33.3653 205.237 33.3 205.144 33.244C205.069 33.188 204.985 33.1413 204.892 33.104C204.817 33.0667 204.743 32.992 204.668 32.88C204.388 32.9733 204.108 33.1133 203.828 33.3C203.567 33.468 203.296 33.6453 203.016 33.832C202.736 34.0187 202.447 34.196 202.148 34.364C201.849 34.5507 201.541 34.6813 201.224 34.756C200.888 34.8493 200.636 34.8307 200.468 34.7C200.319 34.588 200.151 34.4573 199.964 34.308C199.833 34.196 199.749 34.1213 199.712 34.084C199.675 34.0653 199.637 33.9533 199.6 33.748C199.544 33.3373 199.535 32.8987 199.572 32.432C199.628 31.9467 199.74 31.4613 199.908 30.976C200.375 29.5573 201.327 28.6053 202.764 28.12C202.932 28.064 203.1 28.0547 203.268 28.092C203.455 28.1107 203.632 28.1573 203.8 28.232C203.968 28.3067 204.127 28.4 204.276 28.512C204.444 28.624 204.593 28.736 204.724 28.848L205.172 29.212C205.265 28.8947 205.256 28.5587 205.144 28.204C205.051 27.8307 204.901 27.4853 204.696 27.168C204.491 26.832 204.257 26.5333 203.996 26.272C203.735 26.0107 203.483 25.8333 203.24 25.74C202.288 25.74 201.429 25.964 200.664 26.412C199.917 26.8413 199.189 27.4107 198.48 28.12C198.443 28.1573 198.396 28.1853 198.34 28.204C198.303 28.2227 198.265 28.2413 198.228 28.26C198.172 28.2973 198.107 28.3067 198.032 28.288C197.976 28.2693 197.967 28.2133 198.004 28.12C198.116 27.5227 198.34 26.9907 198.676 26.524C199.012 26.0387 199.404 25.6187 199.852 25.264C200.3 24.9093 200.776 24.6107 201.28 24.368C201.784 24.1253 202.279 23.948 202.764 23.836C202.839 23.7987 202.904 23.78 202.96 23.78C203.035 23.7613 203.119 23.752 203.212 23.752C203.343 23.752 203.464 23.7893 203.576 23.864C203.688 23.9387 203.819 24.0227 203.968 24.116C204.155 24.2093 204.341 24.3213 204.528 24.452C204.715 24.564 204.883 24.704 205.032 24.872C205.163 25.0213 205.275 25.1707 205.368 25.32C205.461 25.4693 205.545 25.6093 205.62 25.74ZM204.668 30.724C204.556 30.4813 204.379 30.2573 204.136 30.052C203.912 29.8467 203.651 29.6973 203.352 29.604C203.053 29.492 202.727 29.464 202.372 29.52C202.036 29.576 201.691 29.744 201.336 30.024C201.224 30.2667 201.112 30.5373 201 30.836C200.888 31.116 200.804 31.4053 200.748 31.704C200.692 31.984 200.664 32.2733 200.664 32.572C200.683 32.852 200.748 33.1133 200.86 33.356C201.569 33.1133 202.26 32.8333 202.932 32.516C203.604 32.1987 204.183 31.9187 204.668 31.676C204.78 31.564 204.845 31.4707 204.864 31.396C204.883 31.3213 204.873 31.256 204.836 31.2C204.817 31.144 204.78 31.0787 204.724 31.004C204.687 30.9293 204.668 30.836 204.668 30.724Z" fill="#FFB152"/>
<defs>
<linearGradient id="paint0_linear" x1="227.5" y1="662" x2="370" y2="661.5" gradientUnits="userSpaceOnUse">
<stop stop-color="#FFFAF0"/>
<stop offset="1" stop-color="#F6AD55"/>
</linearGradient>
<linearGradient id="paint1_linear" x1="2.90769e-05" y1="661.5" x2="324" y2="661.5" gradientUnits="userSpaceOnUse">
<stop stop-color="#FBD38D"/>
<stop offset="1" stop-color="#ED8936"/>
</linearGradient>
<linearGradient id="paint2_linear" x1="133.966" y1="365.761" x2="189.195" y2="365.761" gradientUnits="userSpaceOnUse">
<stop stop-color="#C05621"/>
<stop offset="1" stop-color="#DD6B20"/>
</linearGradient>
<radialGradient id="paint3_radial" cx="0" cy="0" r="1" gradientUnits="userSpaceOnUse" gradientTransform="translate(195.515 115.35) rotate(90.8136) scale(115.9 40.6169)">
<stop stop-color="#FFFAF0"/>
<stop offset="1" stop-color="#F6AD55"/>
</radialGradient>
<linearGradient id="paint4_linear" x1="181" y1="332" x2="194.5" y2="332" gradientUnits="userSpaceOnUse">
<stop stop-color="#FFFAF0"/>
<stop offset="1" stop-color="#ED8936"/>
</linearGradient>
<linearGradient id="paint5_linear" x1="178.772" y1="0.651421" x2="175.565" y2="199.248" gradientUnits="userSpaceOnUse">
<stop stop-color="#C05621"/>
<stop offset="1" stop-color="#7B341E"/>
</linearGradient>
<linearGradient id="paint6_linear" x1="159" y1="87" x2="176.49" y2="146.209" gradientUnits="userSpaceOnUse">
<stop offset="0.161769" stop-color="#ED8936"/>
<stop offset="1" stop-color="#C05621"/>
</linearGradient>
</defs>
</svg>
