<svg width="67" height="50" viewBox="0 0 67 50" fill="none" xmlns="http://www.w3.org/2000/svg">
  <style>
    svg {
      color: #2d3748;
    }
    @media (prefers-color-scheme: dark) {
      svg {
        color: #fff;
      }
    }
  </style>
  <path fill-rule="evenodd" clip-rule="evenodd" d="M48.9094 26.0858L34.3768 47.7794C33.1886 49.5532 30.5802 49.5532 29.392 47.7794L0.512641 4.66968C-0.822618 2.67647 0.605934 0 3.00506 0H15.8844L34.126 24.6449C37.7466 29.5365 44.6743 29.9744 48.9094 26.0858Z" fill="currentcolor"/>
    <g opacity="0.65">
      <path d="M15.8844 0H61.2329C63.6382 0 65.0655 2.68871 63.7178 4.68096L50.4464 24.2988C46.5815 30.0119 38.2296 30.1891 34.1259 24.6449L15.8844 0Z" fill="url(#paint0_linear)"/>
      <path d="M15.8844 0H61.2329C63.6382 0 65.0655 2.68871 63.7178 4.68096L50.4464 24.2988C46.5815 30.0119 38.2296 30.1891 34.1259 24.6449L15.8844 0Z" fill="url(#paint1_linear)" fill-opacity="0.3"/>
    </g>
  <path d="M51.5 0H61.2863C63.7039 0 65.1285 2.71325 63.7558 4.70337L61.555 7.89413C59.0094 11.5846 53.2681 10.3184 52.5109 5.89965L51.5 0Z" fill="url(#paint2_linear)"/>
  <defs>
    <linearGradient id="paint0_linear" x1="41.3844" y1="0" x2="41.3844" y2="28" gradientUnits="userSpaceOnUse">
      <stop stop-color="currentcolor" stop-opacity="0"/>
      <stop offset="1" stop-color="currentcolor"/>
    </linearGradient>
    <linearGradient id="paint1_linear" x1="41.3844" y1="0" x2="41.3844" y2="36" gradientUnits="userSpaceOnUse">
      <stop stop-color="currentcolor"/>
      <stop offset="1" stop-color="currentcolor" stop-opacity="0"/>
    </linearGradient>
    <linearGradient id="paint2_linear" x1="54" y1="0" x2="54" y2="18" gradientUnits="userSpaceOnUse">
      <stop stop-color="currentcolor"/>
      <stop offset="1" stop-color="currentcolor" stop-opacity="0"/>
    </linearGradient>
  </defs>
</svg>
