<svg width="238" height="68" viewBox="0 0 238 68" fill="none" xmlns="http://www.w3.org/2000/svg">
<path d="M86.5 21C88.5 18 91.4999 16.7188 94.9999 16.7188C97.4999 16.7188 99.6161 16.7188 100.812 16.7188C104.354 16.7188 107.115 17.8333 109.094 20.0625C110.802 21.9583 111.656 25.0521 111.656 29.3438V48H104.594V31C104.594 28 104.177 25.9271 103.344 24.7812C102.531 23.6146 101.052 23.0312 98.9062 23.0312C96.5729 23.0312 94.9166 23.8021 93.9374 25.3438C92.9791 26.8646 92.4999 29.5208 92.4999 33.3125V48H85.4374C85.0246 37.0773 85.4376 26.7812 86.5 21Z" fill="white"/>
<path d="M127.594 17.5625V48H120.562V17.5625H127.594ZM119.5 4.90625C119.5 3.67708 119.948 2.61458 120.844 1.71875C121.74 0.822917 122.812 0.375 124.062 0.375C125.333 0.375 126.417 0.822917 127.312 1.71875C128.208 2.59375 128.656 3.66667 128.656 4.9375C128.656 6.20833 128.208 7.29167 127.312 8.1875C126.437 9.08333 125.365 9.53125 124.094 9.53125C122.823 9.53125 121.74 9.08333 120.844 8.1875C119.948 7.29167 119.5 6.19792 119.5 4.90625Z" fill="white"/>
<path d="M158.573 18.1011C159.59 18.5292 160.187 19.5628 160.187 20.6659V23.7012C160.187 24.6406 158.831 25.2003 157.942 24.895C157.21 24.6435 156.521 24.5581 155.875 24.1875C154.625 23.4375 153.156 23.0625 151.469 23.0625C148.823 23.0625 146.625 23.9896 144.875 25.8438C143.125 27.6979 142.25 30.0208 142.25 32.8125C142.25 35.6667 143.094 38.0104 144.781 39.8438C146.49 41.6771 148.667 42.5938 151.312 42.5938C153 42.5938 154.49 42.2292 155.781 41.5C156.458 41.1162 157.2 41.0138 158.005 40.6758C158.87 40.3132 160.187 40.8422 160.187 41.7795V44.8321C160.187 45.9527 159.57 46.9972 158.536 47.4297C156.232 48.3932 153.929 48.875 151.625 48.875C146.917 48.875 142.979 47.3542 139.812 44.3125C136.646 41.25 135.062 37.4479 135.062 32.9062C135.062 28.3646 136.667 24.5312 139.875 21.4062C143.083 18.2812 147.021 16.7188 151.687 16.7188C154.089 16.7188 156.385 17.1795 158.573 18.1011Z" fill="white"/>
<path d="M174.031 17.5625V48H167V17.5625H174.031ZM165.937 4.90625C165.937 3.67708 166.385 2.61458 167.281 1.71875C168.177 0.822917 169.25 0.375 170.5 0.375C171.771 0.375 172.854 0.822917 173.75 1.71875C174.646 2.59375 175.094 3.66667 175.094 4.9375C175.094 6.20833 174.646 7.29167 173.75 8.1875C172.875 9.08333 171.802 9.53125 170.531 9.53125C169.26 9.53125 168.177 9.08333 167.281 8.1875C166.385 7.29167 165.937 6.19792 165.937 4.90625Z" fill="white"/>
<path d="M189.969 17.5625V35.0312C189.969 40.0729 191.958 42.5938 195.937 42.5938C199.917 42.5938 201.906 40.0729 201.906 35.0312V17.5625H208.937V35.1875C208.937 37.625 208.635 39.7292 208.031 41.5C207.448 43.0833 206.437 44.5104 205 45.7812C202.625 47.8438 199.604 48.875 195.937 48.875C192.292 48.875 189.281 47.8438 186.906 45.7812C185.448 44.5104 184.417 43.0833 183.812 41.5C183.229 40.0833 182.937 37.9792 182.937 35.1875V17.5625H189.969Z" fill="white"/>
<path d="M233.854 20.0655C234.961 21.4432 234.274 23.4025 232.714 24.2328V24.2328C231.06 25.1134 229.17 24.1105 227.479 23.3024C227.101 23.1216 226.702 23.0312 226.281 23.0312C225.635 23.0312 225.083 23.25 224.625 23.6875C224.167 24.1042 223.937 24.6458 223.937 25.3125C223.937 26.4792 225.292 27.6354 228 28.7812C231.729 30.3854 234.24 31.8646 235.531 33.2188C236.823 34.5729 237.469 36.3958 237.469 38.6875C237.469 41.625 236.385 44.0833 234.219 46.0625C232.115 47.9375 229.573 48.875 226.594 48.875C222.629 48.875 219.564 47.3733 217.397 44.3698C216.289 42.8351 217.115 40.7737 218.832 39.9777V39.9777C220.482 39.2127 222.274 39.9838 223.538 41.2914C223.579 41.3337 223.618 41.372 223.656 41.4062C224.51 42.1979 225.531 42.5938 226.719 42.5938C229.094 42.5938 230.281 41.5104 230.281 39.3438C230.281 38.0938 229.365 36.9271 227.531 35.8438C226.823 35.4896 226.115 35.1458 225.406 34.8125C224.698 34.4792 223.979 34.1354 223.25 33.7812C221.208 32.7812 219.771 31.7812 218.937 30.7812C217.875 29.5104 217.344 27.875 217.344 25.875C217.344 23.2292 218.25 21.0417 220.062 19.3125C221.917 17.5833 224.167 16.7188 226.812 16.7188C229.714 16.7188 232.062 17.8343 233.854 20.0655Z" fill="white"/>
<path d="M1.00001 38C-3.03049 22.5497 7.25031 3.83593 48.9307 9.3213C49.9966 9.46158 50.0987 10.9957 49.0806 11.3413C3.33669 26.868 30.3338 72.7767 57.5 65.5C29 74.4999 5.17393 54 1.00001 38Z" fill="white"/>
<path opacity="0.8" d="M50.3746 62.9111C29.1592 60.7922 19.7904 36.5535 36.7729 21.1673C37.3941 20.6045 38.351 21.062 38.3215 21.8997C38.128 27.4009 37.3658 29.4929 40.5 38C43.8235 47.0209 65.4689 55.1731 72.0791 24.9618C72.1985 24.416 72.6833 24 73.2421 24C73.7909 24 74.2688 24.3818 74.3778 24.9197C78.3739 44.6467 67.4684 64.6184 50.3746 62.9111Z" fill="white"/>
<circle cx="73" cy="5" r="5" fill="white"/>
<path opacity="0.4" d="M62.5 28C58.5453 38.9852 51.5014 38.3856 44.083 36.3822C43.1361 36.1264 42.4482 37.193 43.1418 37.8866C49.5972 44.3426 57.7176 46.1799 64 39C67.0356 35.5308 63.5 34.5 62.5 28Z" fill="white"/>
</svg>
