<svg width="120" height="120" viewBox="0 0 120 120" fill="none" xmlns="http://www.w3.org/2000/svg">
<path d="M0 60C0 26.8629 26.8629 0 60 0V0C93.1371 0 120 26.8629 120 60V60C120 93.1371 93.1371 120 60 120V120C26.8629 120 0 93.1371 0 60V60Z" fill="white"/>
<path fill-rule="evenodd" clip-rule="evenodd" d="M77.9094 67.0858L63.3768 88.7794C62.1886 90.5532 59.5802 90.5532 58.392 88.7794L29.5126 45.6697C28.1774 43.6765 29.6059 41 32.0051 41H44.8844L63.126 65.6449C66.7466 70.5365 73.6743 70.9744 77.9094 67.0858Z" fill="#2D3748"/>
<g opacity="0.65">
<path d="M44.8844 41H90.2329C92.6382 41 94.0655 43.6887 92.7178 45.681L79.4464 65.2988C75.5815 71.0119 67.2296 71.1891 63.1259 65.6449L44.8844 41Z" fill="url(#paint0_linear)"/>
<path d="M44.8844 41H90.2329C92.6382 41 94.0655 43.6887 92.7178 45.681L79.4464 65.2988C75.5815 71.0119 67.2296 71.1891 63.1259 65.6449L44.8844 41Z" fill="url(#paint1_linear)" fill-opacity="0.3"/>
</g>
<path d="M80.5 41H90.2863C92.7039 41 94.1285 43.7132 92.7558 45.7034L90.555 48.8941C88.0094 52.5846 82.2681 51.3184 81.5109 46.8996L80.5 41Z" fill="url(#paint2_linear)"/>
<defs>
<linearGradient id="paint0_linear" x1="70.3844" y1="41" x2="70.3844" y2="69" gradientUnits="userSpaceOnUse">
<stop stop-color="#2D3748" stop-opacity="0"/>
<stop offset="1" stop-color="#2D3748"/>
</linearGradient>
<linearGradient id="paint1_linear" x1="70.3844" y1="41" x2="70.3844" y2="77" gradientUnits="userSpaceOnUse">
<stop stop-color="#2D3748"/>
<stop offset="1" stop-color="#2D3748" stop-opacity="0"/>
</linearGradient>
<linearGradient id="paint2_linear" x1="83" y1="41" x2="83" y2="59" gradientUnits="userSpaceOnUse">
<stop stop-color="#2D3748"/>
<stop offset="1" stop-color="#2D3748" stop-opacity="0"/>
</linearGradient>
</defs>
</svg>
