<svg width="1004" height="257" viewBox="0 0 1004 257" fill="none" xmlns="http://www.w3.org/2000/svg">
<g clip-path="url(#clip0)">
<rect width="1003.36" height="257" fill="white"/>
<path d="M-3.52057 211.095C382.86 257 603.27 256.182 1003.36 211.095V257H-3.52057V211.095Z" stroke="#CBD5E0" stroke-width="1.76027"/>
<path d="M-3.52057 160.444C382.86 249.959 603.27 248.365 1003.36 160.444V268.442H-3.52057V160.444Z" fill="url(#paint0_linear)" stroke="#A0AEC0" stroke-width="1.76027"/>
<path d="M-3.52057 93.8035C382.86 246.438 603.27 243.72 1003.36 93.8035V278.123H-3.52057V93.8035Z" fill="url(#paint1_linear)" stroke="#FFC600" stroke-width="1.76027"/>
<path d="M-3.52057 5.28076C382.86 239.397 603.27 235.227 1003.36 5.28076V266.681H-3.52057V5.28076Z" fill="url(#paint2_linear)" stroke="#9F7AEA" stroke-width="1.76027"/>
<rect width="105.616" height="258.76" transform="translate(0 -1.76025)" fill="url(#paint3_linear)"/>
<rect width="105.616" height="258.76" transform="matrix(-1 0 0 1 1003.36 -1.76025)" fill="url(#paint4_linear)"/>
</g>
<defs>
<linearGradient id="paint0_linear" x1="497.995" y1="136.098" x2="497.995" y2="268.442" gradientUnits="userSpaceOnUse">
<stop stop-color="#718096" stop-opacity="0.3"/>
<stop offset="1" stop-color="white" stop-opacity="0"/>
</linearGradient>
<linearGradient id="paint1_linear" x1="497.995" y1="52.2517" x2="497.995" y2="278.123" gradientUnits="userSpaceOnUse">
<stop stop-color="#FFC600" stop-opacity="0.4"/>
<stop offset="1" stop-color="white" stop-opacity="0"/>
</linearGradient>
<linearGradient id="paint2_linear" x1="497.995" y1="-53.6477" x2="497.995" y2="266.682" gradientUnits="userSpaceOnUse">
<stop stop-color="#9F7AEA" stop-opacity="0.4"/>
<stop offset="1" stop-color="white" stop-opacity="0"/>
</linearGradient>
<linearGradient id="paint3_linear" x1="9.68151" y1="138.181" x2="105.616" y2="139.942" gradientUnits="userSpaceOnUse">
<stop stop-color="white"/>
<stop offset="1" stop-color="white" stop-opacity="0"/>
</linearGradient>
<linearGradient id="paint4_linear" x1="9.68151" y1="138.181" x2="105.616" y2="139.942" gradientUnits="userSpaceOnUse">
<stop stop-color="white"/>
<stop offset="1" stop-color="white" stop-opacity="0"/>
</linearGradient>
<clipPath id="clip0">
<rect width="1003.36" height="257" fill="white"/>
</clipPath>
</defs>
</svg>
