<?xml version="1.0" encoding="UTF-8"?>
<svg width="73px" height="74px" viewBox="0 0 73 74" version="1.1" xmlns="http://www.w3.org/2000/svg" xmlns:xlink="http://www.w3.org/1999/xlink">
    <!-- Generator: Sketch 50.2 (55047) - http://www.bohemiancoding.com/sketch -->
    <title>logo-white</title>
    <desc>Created with Sketch.</desc>
    <defs></defs>
    <g id="logo-white" stroke="none" stroke-width="1" fill="none" fill-rule="evenodd">
        <polygon id="Shape" fill="currentcolor" fill-rule="nonzero" points="39.756 28.936 39.823 28.886 36.413 22.671 32.918 28.894 32.929 28.812 26.123 26.829 28.054 33.7 28.003 33.634 21.788 37.045 28.011 40.538 27.93 40.525 25.946 47.334 32.817 45.403 32.751 45.454 36.163 51.669 39.655 45.445 39.645 45.527 46.451 47.509 44.521 40.64 44.57 40.705 50.786 37.294 44.562 33.801 44.645 33.812 46.626 27.005"></polygon>
        <path d="M11.521,39.256 L11.515,38.797 L11.514,38.797 C10.567,41.024 7.995,42.061 5.769,41.113 C4.766,40.687 4.007,39.93 3.56,39.024 C1.934,40.455 0.776,42.314 0.188,44.357 C2.247,46.839 5.35,48.422 8.826,48.423 C8.974,48.423 9.121,48.418 9.269,48.412 C9.183,48.493 9.096,48.572 9.011,48.658 C6.614,51.054 5.538,54.262 5.763,57.398 C7.555,58.336 9.589,58.787 11.652,58.662 C10.983,56.507 12.065,54.165 14.194,53.306 C15.239,52.885 16.351,52.9 17.333,53.26 C14.13,49.406 12.079,44.571 11.69,39.281 L11.521,39.256 Z" id="Shape" fill="currentcolor" fill-rule="nonzero"></path>
        <path d="M52.108,18.343 L52.277,18.217 C51.606,16.062 52.689,13.717 54.818,12.858 C55.962,12.398 57.182,12.455 58.226,12.916 C58.466,10.655 58.005,8.403 56.96,6.446 C53.672,6.066 50.251,7.129 47.729,9.651 C47.625,9.756 47.523,9.863 47.423,9.973 C47.427,9.855 47.431,9.736 47.431,9.617 C47.432,6.205 45.907,3.151 43.504,1.091 C41.508,1.758 39.705,2.979 38.343,4.658 C40.274,5.735 41.122,8.115 40.238,10.194 C39.8,11.222 39.015,11.986 38.08,12.428 L38.138,12.754 C43.423,13.127 48.253,15.164 52.108,18.343" id="Shape" fill="currentcolor" fill-rule="nonzero"></path>
        <path d="M40.116,67.522 C39.71,68.479 39.001,69.212 38.151,69.668 C39.568,71.381 41.45,72.613 43.53,73.248 C46.036,71.19 47.636,68.071 47.637,64.576 C47.637,64.427 47.632,64.279 47.625,64.134 C47.706,64.22 47.786,64.307 47.87,64.391 C50.312,66.835 53.599,67.909 56.791,67.631 C57.744,65.774 58.175,63.657 57.987,61.527 C55.748,62.417 53.209,61.332 52.306,59.095 C51.974,58.272 51.913,57.407 52.076,56.597 C48.301,59.698 43.595,61.699 38.446,62.126 C40.215,63.258 40.964,65.527 40.116,67.522" id="Shape" fill="currentcolor" fill-rule="nonzero"></path>
        <path d="M17.473,61.433 C16.512,61.821 15.494,61.839 14.573,61.563 C14.409,63.737 14.892,65.892 15.912,67.769 C19.12,68.069 22.43,66.995 24.886,64.539 C24.991,64.435 25.092,64.326 25.192,64.218 C25.189,64.337 25.183,64.454 25.183,64.573 C25.182,67.997 26.719,71.055 29.134,73.114 C31.088,72.5 32.865,71.356 34.24,69.777 C32.106,68.787 31.126,66.276 32.053,64.095 C32.423,63.227 33.041,62.542 33.789,62.082 C28.523,61.531 23.747,59.321 19.986,55.991 C20.71,58.169 19.63,60.562 17.473,61.433" id="Shape" fill="currentcolor" fill-rule="nonzero"></path>
        <path d="M17.525,21.43 L17.299,21.133 L17.514,20.911 C15.282,21.783 12.758,20.701 11.859,18.472 C11.421,17.387 11.452,16.231 11.852,15.223 C9.674,15.074 7.518,15.569 5.644,16.605 C5.317,19.842 6.383,23.194 8.865,25.674 C8.969,25.779 9.077,25.88 9.186,25.979 C9.068,25.976 8.95,25.97 8.83,25.97 C5.459,25.969 2.44,27.459 0.382,29.812 C0.996,31.75 2.132,33.516 3.699,34.884 C4.792,32.999 7.14,32.177 9.197,33.052 C10.287,33.515 11.091,34.369 11.517,35.381 L11.719,35.346 C12.165,30.063 14.275,25.251 17.525,21.43" id="Shape" fill="currentcolor" fill-rule="nonzero"></path>
        <path d="M34.147,12.787 L34.201,12.402 L34.267,12.402 C32.202,11.381 31.263,8.915 32.177,6.768 C32.658,5.636 33.561,4.813 34.622,4.401 C33.186,2.693 31.286,1.475 29.191,0.858 C26.626,2.915 24.979,6.068 24.978,9.613 C24.978,9.761 24.984,9.908 24.989,10.056 C24.909,9.97 24.828,9.883 24.745,9.798 C22.354,7.407 19.152,6.325 16.026,6.543 C15.088,8.387 14.66,10.48 14.842,12.592 C16.936,12.057 19.153,13.136 19.983,15.194 C20.411,16.255 20.392,17.383 20.016,18.376 L20.342,18.605 C24.134,15.371 28.906,13.259 34.147,12.787" id="Shape" fill="currentcolor" fill-rule="nonzero"></path>
        <path d="M61.029,35 C62.125,33.12 64.469,32.302 66.523,33.174 C67.605,33.634 68.403,34.48 68.834,35.482 C70.625,34.062 71.914,32.143 72.577,30.014 C70.52,27.427 67.351,25.765 63.789,25.765 C63.641,25.765 63.494,25.77 63.348,25.776 C63.432,25.695 63.521,25.615 63.605,25.531 C66.043,23.093 67.119,19.812 66.843,16.626 C64.939,15.683 62.776,15.281 60.605,15.525 C61.339,17.708 60.26,20.11 58.095,20.982 C57.06,21.4 55.96,21.386 54.985,21.036 L54.952,21.086 C58.296,24.877 60.505,29.693 61.029,35" id="Shape" fill="currentcolor" fill-rule="nonzero"></path>
        <path d="M68.811,38.984 C67.841,41.164 65.301,42.174 63.097,41.236 C62.214,40.861 61.523,40.229 61.063,39.465 C60.644,44.64 58.633,49.371 55.515,53.162 C57.541,52.758 59.632,53.832 60.433,55.817 C60.843,56.834 60.841,57.913 60.512,58.875 C62.765,59.126 65.013,58.679 66.97,57.651 C67.32,54.393 66.248,51.013 63.752,48.514 C63.647,48.41 63.538,48.309 63.431,48.209 C63.55,48.211 63.666,48.217 63.786,48.217 C67.253,48.218 70.346,46.643 72.402,44.174 C71.734,42.166 70.503,40.352 68.811,38.984" id="Shape" fill="currentcolor" fill-rule="nonzero"></path>
        <path d="M14.479,39.669 C14.911,43.963 16.587,47.896 19.134,51.107 L26.044,41.282 L14.479,39.669 Z" id="Shape" fill="currentcolor" fill-rule="nonzero"></path>
        <path d="M58.219,34.688 C57.685,30.431 55.935,26.548 53.32,23.402 L46.531,33.057 L58.219,34.688 Z" id="Shape" fill="currentcolor" fill-rule="nonzero"></path>
        <path d="M14.526,34.856 L26.136,32.833 L19.224,23.68 C16.703,26.819 15.021,30.658 14.526,34.856" id="Shape" fill="currentcolor" fill-rule="nonzero"></path>
        <path d="M53.662,51.07 C56.239,47.809 57.913,43.806 58.306,39.437 L46.439,41.505 L53.662,51.07 Z" id="Shape" fill="currentcolor" fill-rule="nonzero"></path>
        <path d="M38.735,59.338 C43.13,58.871 47.142,57.107 50.381,54.433 L40.398,47.412 L38.735,59.338 Z" id="Shape" fill="currentcolor" fill-rule="nonzero"></path>
        <path d="M49.85,20.051 C46.681,17.593 42.828,15.976 38.624,15.549 L40.622,27.019 L49.85,20.051 Z" id="Shape" fill="currentcolor" fill-rule="nonzero"></path>
        <path d="M33.755,15.598 C29.596,16.095 25.792,17.755 22.674,20.244 L32.175,26.927 L33.755,15.598 Z" id="Shape" fill="currentcolor" fill-rule="nonzero"></path>
        <path d="M22.46,54.489 C25.687,57.132 29.678,58.879 34.045,59.341 L31.952,47.32 L22.46,54.489 Z" id="Shape" fill="currentcolor" fill-rule="nonzero"></path>
    </g>
</svg>
