<svg
  width="148"
  height="40"
  viewBox="0 0 148 40"
  fill="none"
  xmlns="http://www.w3.org/2000/svg"
>
  <path
    d="M146.78 1.24445C147.453 1.54234 147.852 2.22872 147.852 2.96415V6.64218C147.852 7.58168 146.643 8.02546 145.955 7.38548C145.374 6.84477 144.826 6.42678 144.312 6.13154C143.285 5.51582 142.08 5.20796 140.694 5.20796C138.522 5.20796 136.718 5.96906 135.281 7.49125C133.844 9.01345 133.126 10.9205 133.126 13.2123C133.126 15.5555 133.819 17.4796 135.204 18.9847C136.607 20.4898 138.394 21.2423 140.566 21.2423C141.951 21.2423 143.174 20.943 144.235 20.3444C144.765 20.0436 145.344 19.5964 145.971 19.0027C146.652 18.3582 147.852 18.8002 147.852 19.7375V23.3613C147.852 24.1084 147.439 24.8023 146.755 25.1017C144.777 25.9665 142.8 26.399 140.823 26.399C136.957 26.399 133.725 25.1504 131.125 22.6533C128.525 20.1392 127.225 17.0178 127.225 13.2893C127.225 9.56075 128.542 6.41374 131.176 3.84825C133.81 1.28275 137.043 0 140.874 0C142.939 0 144.908 0.414817 146.78 1.24445Z"
    fill="currentcolor"
  />
  <path
    d="M118.604 0H122.225C123.33 0 124.225 0.895431 124.225 2V26H118.427V26C118.427 24.8853 117.055 24.2698 116.103 24.8491C114.404 25.8824 112.622 26.399 110.757 26.399C107.302 26.399 104.445 25.1504 102.188 22.6533C99.9472 20.1049 98.827 16.9237 98.827 13.1097C98.827 9.36406 99.9472 6.24271 102.188 3.74563C104.428 1.24854 107.235 -7.53109e-08 110.604 0C114.604 8.9407e-08 113.281 -4.47035e-07 118.604 0ZM104.728 13.1097C104.728 15.5042 105.369 17.4539 106.652 18.959C107.969 20.4812 109.628 21.2423 111.629 21.2423C113.767 21.2423 115.867 21.2778 117.104 20C118.342 18.7222 118.787 18.7778 118.787 13.238C118.787 11.298 118.787 10.0863 118.787 9.20669C118.787 6.99755 116.996 5.20796 114.787 5.20796C113.694 5.20796 112.663 5.20796 111.68 5.20796C109.696 5.20796 108.037 5.96051 106.703 7.4656C105.386 8.98779 104.728 10.8692 104.728 13.1097Z"
    fill="currentcolor"
  />
  <path
    d="M76.2009 39.2778H70.4285V2C70.4285 0.895434 71.324 0 72.4285 0H74.6044C78.6044 -4.17233e-07 81.214 0 84.1044 0C87.5422 0 90.2171 1.26564 92.4405 3.79694C94.6981 6.31112 95.827 9.48379 95.827 13.3149C95.827 17.0606 94.7067 20.1819 92.4661 22.679C90.2427 25.159 87.4378 26.399 84.0513 26.399C82.6962 26.399 81.4071 26.1474 80.1841 25.6444C78.5297 24.9638 76.2009 25.9744 76.2009 27.7633V39.2778ZM89.9263 13.3406C89.9263 10.9461 89.2764 8.99634 87.9765 7.49125C86.6596 5.96906 85.0006 5.20796 82.9995 5.20796C82.3827 5.20796 81.7953 5.20796 81.201 5.20796C78.4395 5.20796 76.2009 7.44654 76.2009 10.208C76.2009 11.2763 76.2009 12.3456 76.2009 13.3406C76.2009 15.3433 76.2386 16.8461 76.93 18.3203C77.4124 19.3486 78.3493 20.0821 79.3922 20.5322C80.5079 21.0138 81.4862 21.2423 82.9738 21.2423C84.9749 21.2423 86.6254 20.4898 87.9252 18.9847C89.2593 17.4796 89.9263 15.5982 89.9263 13.3406Z"
    fill="currentcolor"
  />
  <path
    d="M45.904 2C45.904 0.895431 46.7995 0 47.904 0H48.1044C51.5068 -1.60998e-06 55.995 0 58.5263 0C61.4338 0 63.7 1.2344 65.3248 3.06446C66.7273 4.62086 67.4285 7.1607 67.4285 10.684V26H61.6305V12.0437C61.6305 9.58082 61.2885 7.87904 60.6043 6.93836C59.9373 5.98057 58.723 5.50168 56.9613 5.50168C55.0457 5.50168 53.686 6.1345 52.8822 7.40015C52.0954 8.64869 51.702 10.8294 51.702 13.9422V26H45.904V2Z"
    fill="currentcolor"
  />
  <path
    d="M40.9502 0C41.477 0 41.904 0.427025 41.904 0.953786V26H36.1317V4.81858C36.1317 2.15735 38.289 0 40.9502 0V0Z"
    fill="currentcolor"
  />
  <path
    fill-rule="evenodd"
    clip-rule="evenodd"
    d="M25.8939 13.8105L18.2 25.2957C17.5709 26.2348 16.19 26.2348 15.5609 25.2957L0.271405 2.47225C-0.435516 1.41699 0.320799 0 1.59096 0H8.40962L18.0672 13.0477C19.984 15.6374 23.6518 15.8692 25.8939 13.8105Z"
    fill="currentcolor"
  />
  <g opacity="0.5">
    <path
      opacity="0.5"
      d="M8.40961 0H32.4183C33.6917 0 34.4474 1.42347 33.7339 2.47822L26.7076 12.8644C24.6615 15.8891 20.2397 15.9829 18.0671 13.0477L8.40961 0Z"
      fill="url(#paint0_linear_13_1012)"
    />
    <path
      opacity="0.5"
      d="M8.40961 0H32.4183C33.6917 0 34.4474 1.42347 33.7339 2.47822L26.7076 12.8644C24.6615 15.8891 20.2397 15.9829 18.0671 13.0477L8.40961 0Z"
      fill="url(#paint1_linear_13_1012)"
      fill-opacity="0.3"
    />
  </g>
  <path
    d="M27.2655 0H32.4466C33.7265 0 34.4808 1.43647 33.754 2.49009L32.5889 4.17936C31.2411 6.13319 28.2016 5.46283 27.8007 3.12343L27.2655 0Z"
    fill="url(#paint2_linear_13_1012)"
  />
  <defs>
    <linearGradient
      id="paint0_linear_13_1012"
      x1="21.91"
      y1="0"
      x2="21.91"
      y2="14.8239"
      gradientUnits="userSpaceOnUse"
    >
      <stop stop-color="currentcolor" stop-opacity="0" />
      <stop stop-color="currentcolor" offset="1" />
    </linearGradient>
    <linearGradient
      id="paint1_linear_13_1012"
      x1="21.91"
      y1="0"
      x2="21.91"
      y2="19.0594"
      gradientUnits="userSpaceOnUse"
    >
      <stop stop-color="currentcolor" />
      <stop stop-color="currentcolor" offset="1" stop-opacity="0" />
    </linearGradient>
    <linearGradient
      id="paint2_linear_13_1012"
      x1="28.589"
      y1="0"
      x2="28.589"
      y2="9.52968"
      gradientUnits="userSpaceOnUse"
    >
      <stop stop-color="currentcolor" />
      <stop stop-color="currentcolor" offset="1" stop-opacity="0" />
    </linearGradient>
  </defs>
</svg>
