<svg width="79" height="34" viewBox="0 0 79 34" fill="none" xmlns="http://www.w3.org/2000/svg">
<path d="M5.69599 32.176C7.61599 32.112 7.71199 29.68 8.15999 27.888L11.072 15.344C12.352 10.224 13.12 6.48001 14.368 1.26402C14.368 0.976013 13.984 0.752014 13.696 0.752014C13.536 0.752014 13.376 0.816013 13.344 0.976013L6.23999 27.664C5.82399 29.104 5.88799 29.136 5.40799 30.096C5.31199 29.872 5.34399 29.744 5.27999 29.584C3.67999 20.88 4.51199 12.048 3.23199 4.78401C3.07199 3.72801 2.75199 2.41601 1.53599 2.41601C1.21599 2.41601 0.959991 2.54401 0.959991 2.92801V3.66401C0.959991 3.92001 0.959991 4.17601 0.991991 4.43201C1.98399 11.792 1.43999 20.112 2.59199 27.376C2.71999 28.368 2.84799 29.392 3.16799 30.352C3.51999 31.44 4.54399 32.176 5.69599 32.176Z" fill="currentcolor"/>
<path d="M16.4752 30.064C16.9872 30.064 17.2432 29.616 17.2432 29.136L17.1792 28.336C16.7632 25.072 16.8592 25.296 16.7312 21.968C16.7312 21.52 16.7312 21.104 16.6992 20.656C16.6992 19.888 16.5072 18.896 15.5792 18.896C14.8752 18.896 14.7472 19.664 14.6512 20.272C14.4592 21.552 14.5232 21.68 14.4912 22.896C14.5552 26.064 14.5552 25.872 14.9712 28.688C15.0992 29.392 15.6752 30.064 16.4752 30.064ZM16.3472 15.152C16.6672 15.12 17.0512 14.992 17.0512 14.608C17.0512 14.224 16.9872 13.808 16.9232 13.424C16.7952 12.88 16.6352 11.92 15.8672 11.92C15.7072 11.92 15.5792 11.952 15.5152 12.112C15.3872 12.464 15.1952 12.752 15.1312 13.104C15.0672 13.52 15.0352 13.872 15.0032 14.288C15.0032 14.832 15.8032 15.152 16.2192 15.152H16.3472Z" fill="currentcolor"/>
<path d="M21.1947 32.432C21.6107 32.432 21.9627 32.24 21.9947 31.76C22.2187 29.648 22.5707 27.6 23.1147 25.552C23.6587 23.504 24.4587 21.552 25.2907 19.6C25.6107 18.736 25.7707 18.416 26.1867 17.616C26.5387 20.176 26.4427 22.256 27.3707 24.464C28.2347 26.48 30.0267 28.464 32.4587 28.624C32.8747 28.624 33.3547 28.496 33.3547 28.016C33.3547 27.408 32.6827 27.088 32.1387 26.992L31.6907 26.832C31.4987 26.736 31.5307 26.832 31.2747 26.576C31.0507 26.48 31.0507 26.416 30.8267 26.224C30.8267 26.192 30.7307 26.128 30.7307 26.096C28.6507 23.664 29.0667 20.912 28.1067 17.488C27.9467 16.976 27.7867 16.4 27.4987 15.92C27.1467 15.44 26.5707 15.12 25.9947 15.12C25.1307 15.248 24.8747 15.568 24.4267 16.24C23.0507 18.096 22.1227 20.496 21.4187 22.576L21.5467 16.112C21.5467 15.792 21.5467 15.44 21.5147 15.12C21.5147 14.608 21.4507 13.712 20.8427 13.712C20.7467 13.712 20.6187 13.744 20.5867 13.872C20.2667 14.704 20.2987 14.672 20.1067 15.44C19.5627 18.768 19.1787 21.68 19.1787 25.04C19.1787 27.184 19.3387 29.36 19.6267 31.376C19.7227 31.952 20.5547 32.432 21.1947 32.432Z" fill="currentcolor"/>
<path d="M37.2565 30.064C37.7685 30.064 38.0245 29.616 38.0245 29.136L37.9605 28.336C37.5445 25.072 37.6405 25.296 37.5125 21.968C37.5125 21.52 37.5125 21.104 37.4805 20.656C37.4805 19.888 37.2885 18.896 36.3605 18.896C35.6565 18.896 35.5285 19.664 35.4325 20.272C35.2405 21.552 35.3045 21.68 35.2725 22.896C35.3365 26.064 35.3365 25.872 35.7525 28.688C35.8805 29.392 36.4565 30.064 37.2565 30.064ZM37.1285 15.152C37.4485 15.12 37.8325 14.992 37.8325 14.608C37.8325 14.224 37.7685 13.808 37.7045 13.424C37.5765 12.88 37.4165 11.92 36.6485 11.92C36.4885 11.92 36.3605 11.952 36.2965 12.112C36.1685 12.464 35.9765 12.752 35.9125 13.104C35.8485 13.52 35.8165 13.872 35.7845 14.288C35.7845 14.832 36.5845 15.152 37.0005 15.152H37.1285Z" fill="currentcolor"/>
<path d="M44.312 34C46.2 34 48.184 32.752 49.784 31.76C51.096 30.928 52.44 30.192 53.656 29.264C53.752 29.2 53.784 29.104 53.784 29.04C53.784 28.816 53.432 28.624 53.144 28.624C53.048 28.624 52.984 28.624 52.92 28.656C49.944 30.096 48.12 32.176 44.856 32.624C43.224 32.336 43.32 32.464 42.648 31.632C42.392 30.928 42.456 31.28 42.36 30.576C42.36 29.232 42.52 28.656 43 27.248C43.672 25.296 44.568 23.44 45.592 21.648C46.424 20.24 47.16 18.96 48.376 17.872H48.344C48.824 17.616 48.632 17.808 49.048 17.488C49.464 17.712 49.368 17.84 49.432 18.16C49.432 18.32 49.368 18.416 49.336 18.576C49.336 18.672 49.496 18.768 49.624 18.768C49.88 18.64 49.88 18.512 49.88 18.224C49.88 17.84 49.656 17.52 49.368 17.168C49.24 17.04 49.176 16.848 49.016 16.72C48.696 16.432 48.28 16.304 47.832 16.304C46.776 16.304 46.008 16.848 45.4 17.584C44.632 18.512 43.992 19.568 43.384 20.624C42.712 21.712 42.104 22.864 41.592 24.048C40.856 25.776 39.96 27.856 39.96 29.744C39.96 30.16 39.992 30.576 40.12 30.992C40.6 32.912 42.52 34 44.312 34Z" fill="currentcolor"/>
<path d="M57.694 30.064C58.206 30.064 58.462 29.616 58.462 29.136L58.398 28.336C57.982 25.072 58.078 25.296 57.95 21.968C57.95 21.52 57.95 21.104 57.918 20.656C57.918 19.888 57.726 18.896 56.798 18.896C56.094 18.896 55.966 19.664 55.87 20.272C55.678 21.552 55.742 21.68 55.71 22.896C55.774 26.064 55.774 25.872 56.19 28.688C56.318 29.392 56.894 30.064 57.694 30.064ZM57.566 15.152C57.886 15.12 58.27 14.992 58.27 14.608C58.27 14.224 58.206 13.808 58.142 13.424C58.014 12.88 57.854 11.92 57.086 11.92C56.926 11.92 56.798 11.952 56.734 12.112C56.606 12.464 56.414 12.752 56.35 13.104C56.286 13.52 56.254 13.872 56.222 14.288C56.222 14.832 57.022 15.152 57.438 15.152H57.566Z" fill="currentcolor"/>
<path d="M69.2295 31.344C69.7415 31.344 69.9655 30.8 69.9655 30.32C69.9335 29.104 69.9975 29.04 69.8375 27.824C69.4535 23.472 69.5175 23.92 68.9735 19.92C68.9095 19.376 68.7175 18.832 68.6535 18.288C68.5575 17.808 68.1735 17.744 67.7255 17.68C67.5015 17.68 67.2775 17.744 67.2135 17.936C67.0215 18.608 66.6695 19.216 66.3495 19.824C65.1655 22.096 64.3655 23.472 62.7975 25.904C62.7975 21.744 62.8615 23.088 63.0215 18.736C63.0215 18.512 62.9575 18.256 62.8935 18.032C62.7975 17.584 62.4775 17.52 62.0295 17.424C61.8375 17.424 61.6775 17.488 61.6135 17.584C61.3575 17.936 61.1655 18.256 61.0695 18.672C60.4615 21.072 60.3975 22 60.3975 24.624C60.3975 25.552 60.4295 26.48 60.5255 27.408C60.5895 28.464 61.4535 29.2 62.5095 29.2L62.9575 29.136C63.7575 28.944 64.1415 28.176 64.5575 27.536C65.7415 25.616 66.2855 24.528 67.2135 22.32C67.3735 25.808 67.4055 26.64 67.7895 29.776C67.8535 30.544 68.3335 31.344 69.2295 31.344Z" fill="currentcolor"/>
<path d="M73.339 33.232L73.627 33.2C73.883 33.168 74.107 33.136 74.363 33.008C74.523 32.944 74.651 32.816 74.811 32.72C75.163 32.496 75.483 32.24 75.803 31.984C76.955 31.088 78.107 30.032 78.107 28.688C78.043 26.832 76.603 25.936 75.099 24.656C75.003 24.56 74.843 24.496 74.843 24.4C74.267 23.76 74.203 23.632 74.203 23.184C74.203 21.68 75.387 19.984 76.123 18.768C76.539 18.096 77.051 17.52 77.467 16.848C77.499 16.752 77.531 16.688 77.531 16.592C77.531 16.272 77.083 15.952 76.635 15.952C76.315 15.984 76.219 16.08 75.931 16.272C74.491 17.264 73.371 18.896 72.475 20.592C72.155 21.232 71.835 21.968 71.835 22.704C71.899 24.24 72.955 25.168 74.203 26.16L75.035 26.832C75.227 27.088 75.355 27.184 75.483 27.408C75.483 27.504 75.579 27.536 75.579 27.632C75.739 28.048 75.675 27.856 75.707 28.272C75.707 29.232 74.427 30.288 73.243 31.12C72.571 31.568 72.091 31.728 72.091 32.368C72.091 32.848 72.699 33.232 73.339 33.232Z" fill="currentcolor"/>
</svg>
