<svg width="227" height="50" viewBox="0 0 227 50" fill="none" xmlns="http://www.w3.org/2000/svg">
<path d="M75.4239 21.75C76.4429 19.3525 80.4238 17.4688 83.9238 17.4688C86.4238 17.4688 88.5399 17.4688 89.7363 17.4688C93.278 17.4688 96.0384 18.5833 98.0175 20.8125C99.7259 22.7083 100.58 25.8021 100.58 30.0938V48.75H93.5175V31.75C93.5175 28.75 93.1009 26.6771 92.2675 25.5312C91.455 24.3646 89.9759 23.7812 87.83 23.7812C85.4967 23.7812 83.8405 24.5521 82.8613 26.0938C81.903 27.6146 81.4238 30.2708 81.4238 34.0625V48.75H74.3613C73.9485 37.8273 74.3613 24.25 75.4239 21.75Z" fill="currentcolor"/>
<path d="M116.518 18.3125V48.75H109.486V18.3125H116.518ZM108.424 5.65625C108.424 4.42708 108.872 3.36458 109.768 2.46875C110.663 1.57292 111.736 1.125 112.986 1.125C114.257 1.125 115.34 1.57292 116.236 2.46875C117.132 3.34375 117.58 4.41667 117.58 5.6875C117.58 6.95833 117.132 8.04167 116.236 8.9375C115.361 9.83333 114.288 10.2812 113.018 10.2812C111.747 10.2812 110.663 9.83333 109.768 8.9375C108.872 8.04167 108.424 6.94792 108.424 5.65625Z" fill="currentcolor"/>
<path d="M147.497 18.8511C148.514 19.2792 149.111 20.3128 149.111 21.4159V24.4512C149.111 25.3906 147.754 25.9503 146.866 25.645C146.134 25.3935 145.445 25.3081 144.799 24.9375C143.549 24.1875 142.08 23.8125 140.393 23.8125C137.747 23.8125 135.549 24.7396 133.799 26.5938C132.049 28.4479 131.174 30.7708 131.174 33.5625C131.174 36.4167 132.018 38.7604 133.705 40.5938C135.413 42.4271 137.59 43.3438 140.236 43.3438C141.924 43.3438 143.413 42.9792 144.705 42.25C145.382 41.8662 146.124 41.7638 146.929 41.4258C147.794 41.0632 149.111 41.5922 149.111 42.5295V45.5821C149.111 46.7027 148.493 47.7472 147.46 48.1797C145.156 49.1432 142.852 49.625 140.549 49.625C135.84 49.625 131.903 48.1042 128.736 45.0625C125.57 42 123.986 38.1979 123.986 33.6562C123.986 29.1146 125.59 25.2812 128.799 22.1562C132.007 19.0312 135.945 17.4688 140.611 17.4688C143.013 17.4688 145.309 17.9295 147.497 18.8511Z" fill="currentcolor"/>
<path d="M162.955 18.3125V48.75H155.924V18.3125H162.955ZM154.861 5.65625C154.861 4.42708 155.309 3.36458 156.205 2.46875C157.101 1.57292 158.174 1.125 159.424 1.125C160.695 1.125 161.778 1.57292 162.674 2.46875C163.57 3.34375 164.018 4.41667 164.018 5.6875C164.018 6.95833 163.57 8.04167 162.674 8.9375C161.799 9.83333 160.726 10.2812 159.455 10.2812C158.184 10.2812 157.101 9.83333 156.205 8.9375C155.309 8.04167 154.861 6.94792 154.861 5.65625Z" fill="currentcolor"/>
<path d="M178.893 18.3125V35.7812C178.893 40.8229 180.882 43.3438 184.861 43.3438C188.84 43.3438 190.83 40.8229 190.83 35.7812V18.3125H197.861V35.9375C197.861 38.375 197.559 40.4792 196.955 42.25C196.372 43.8333 195.361 45.2604 193.924 46.5312C191.549 48.5938 188.528 49.625 184.861 49.625C181.215 49.625 178.205 48.5938 175.83 46.5312C174.372 45.2604 173.34 43.8333 172.736 42.25C172.153 40.8333 171.861 38.7292 171.861 35.9375V18.3125H178.893Z" fill="currentcolor"/>
<path d="M222.778 20.8155C223.884 22.1932 223.198 24.1525 221.638 24.9828V24.9828C219.983 25.8634 218.094 24.8605 216.403 24.0524C216.025 23.8716 215.625 23.7812 215.205 23.7812C214.559 23.7812 214.007 24 213.549 24.4375C213.09 24.8542 212.861 25.3958 212.861 26.0625C212.861 27.2292 214.215 28.3854 216.924 29.5312C220.653 31.1354 223.163 32.6146 224.455 33.9688C225.747 35.3229 226.393 37.1458 226.393 39.4375C226.393 42.375 225.309 44.8333 223.143 46.8125C221.038 48.6875 218.497 49.625 215.518 49.625C211.553 49.625 208.488 48.1233 206.32 45.1198C205.213 43.5851 206.038 41.5237 207.756 40.7277V40.7277C209.406 39.9627 211.197 40.7338 212.462 42.0414C212.503 42.0837 212.542 42.122 212.58 42.1562C213.434 42.9479 214.455 43.3438 215.643 43.3438C218.018 43.3438 219.205 42.2604 219.205 40.0938C219.205 38.8438 218.288 37.6771 216.455 36.5938C215.747 36.2396 215.038 35.8958 214.33 35.5625C213.622 35.2292 212.903 34.8854 212.174 34.5312C210.132 33.5312 208.695 32.5312 207.861 31.5312C206.799 30.2604 206.268 28.625 206.268 26.625C206.268 23.9792 207.174 21.7917 208.986 20.0625C210.84 18.3333 213.09 17.4688 215.736 17.4688C218.638 17.4688 220.985 18.5843 222.778 20.8155Z" fill="currentcolor"/>
<path d="M62.4698 19.0413C63.6037 17.464 66.0938 18.2661 66.0938 20.2087V48.625H59.0625V25.0698C59.0625 24.232 59.3256 23.4153 59.8146 22.735L62.4698 19.0413Z" fill="currentcolor"/>
<path fill-rule="evenodd" clip-rule="evenodd" d="M48.9094 26.0858L34.3768 47.7794C33.1886 49.5532 30.5802 49.5532 29.392 47.7794L0.51264 4.66968C-0.822618 2.67647 0.605936 0 3.00506 0H15.8844L34.126 24.6449C37.7466 29.5365 44.6743 29.9744 48.9094 26.0858Z" fill="currentcolor"/>
<g opacity="0.5">
<path d="M15.8844 0H61.2329C63.6382 0 65.0655 2.68871 63.7178 4.68096L50.4464 24.2988C46.5815 30.0119 38.2296 30.1891 34.1259 24.6449L15.8844 0Z" fill="url(#paint0_linear)"/>
<path d="M15.8844 0H61.2329C63.6382 0 65.0655 2.68871 63.7178 4.68096L50.4464 24.2988C46.5815 30.0119 38.2296 30.1891 34.1259 24.6449L15.8844 0Z" fill="url(#paint1_linear)" fill-opacity="0.3"/>
</g>
<path d="M51.5 0H61.2863C63.7039 0 65.1285 2.71325 63.7558 4.70337L61.555 7.89413C59.0094 11.5846 53.2681 10.3184 52.5109 5.89965L51.5 0Z" fill="url(#paint2_linear)"/>
<defs>
<linearGradient id="paint0_linear" x1="41.3844" y1="0" x2="41.3844" y2="28" gradientUnits="userSpaceOnUse">
<stop stop-color="currentcolor" stop-opacity="0"/>
<stop offset="1" stop-color="currentcolor"/>
</linearGradient>
<linearGradient id="paint1_linear" x1="41.3844" y1="0" x2="41.3844" y2="36" gradientUnits="userSpaceOnUse">
<stop stop-color="currentcolor"/>
<stop offset="1" stop-color="currentcolor" stop-opacity="0"/>
</linearGradient>
<linearGradient id="paint2_linear" x1="54" y1="0" x2="54" y2="18" gradientUnits="userSpaceOnUse">
<stop stop-color="currentcolor"/>
<stop offset="1" stop-color="currentcolor" stop-opacity="0"/>
</linearGradient>
</defs>
</svg>
