<svg width="638" height="638" viewBox="0 0 638 638" fill="none" xmlns="http://www.w3.org/2000/svg">
<path d="M0 319C0 142.821 142.821 0 319 0V0C495.179 0 638 142.821 638 319V319C638 495.179 495.179 638 319 638V638C142.821 638 0 495.179 0 319V319Z" fill="white"/>
<g clip-path="url(#clip0_39_459)">
<path d="M531.356 296.991C531.356 296.991 531.356 429.735 442.859 488.733C354.363 547.73 184.745 496.107 184.745 496.107L531.356 296.991Z" fill="#6366F1" fill-opacity="0.3"/>
<path d="M324.864 532.98C442.979 532.98 538.73 437.228 538.73 319.113C538.73 200.998 442.979 105.247 324.864 105.247C206.749 105.247 110.998 200.998 110.998 319.113C110.998 437.228 206.749 532.98 324.864 532.98Z" stroke="#6366F1" stroke-width="29.4988"/>
<path d="M255.813 522.978L536.826 360.734" stroke="#6366F1" stroke-width="14.7494"/>
<path d="M115.693 280.284L396.707 118.041" stroke="#6366F1" stroke-width="14.7494"/>
<path d="M194.381 490.319L449.847 342.825" stroke="#6366F1" stroke-width="14.7494" stroke-linecap="round" stroke-linejoin="round"/>
<path d="M202.677 298.192L458.144 150.698" stroke="#6366F1" stroke-width="14.7494" stroke-linecap="round"/>
<path d="M261.934 270.88L398.757 372.327" stroke="#6366F1" stroke-width="14.7494" stroke-linecap="round" stroke-linejoin="round"/>
<path d="M199.494 296.991L336.314 398.431" stroke="#6366F1" stroke-width="14.7494" stroke-linecap="round" stroke-linejoin="round"/>
<path fill-rule="evenodd" clip-rule="evenodd" d="M310.12 223.242C241.283 223.242 198.271 257.66 181.055 326.495C206.87 292.077 236.984 279.173 271.397 287.773C291.031 292.678 305.072 306.925 320.599 322.699C345.909 348.385 375.203 378.111 439.174 378.111C508.001 378.111 551.022 343.694 568.229 274.869C542.424 309.286 512.31 322.19 477.897 313.581C458.252 308.676 444.212 294.428 428.684 278.665C403.375 252.958 374.091 223.242 310.12 223.242ZM181.055 378.111C112.228 378.111 69.2066 412.529 52 481.364C77.815 446.946 107.929 434.042 142.332 442.641C161.977 447.547 176.017 461.794 191.545 477.568C216.854 503.254 246.138 532.98 310.12 532.98C378.946 532.98 421.968 498.572 439.174 429.737C413.359 464.155 383.245 477.059 348.832 468.46C329.198 463.544 315.157 449.297 299.63 433.533C274.32 407.847 245.026 378.111 181.055 378.111V378.111Z" fill="#6366F1"/>
</g>
<defs>
<clipPath id="clip0_39_459">
<rect width="516.229" height="516.229" fill="white" transform="translate(52 61)"/>
</clipPath>
</defs>
</svg>
